<?xml version="1.0" encoding="utf-8"?>
<!-- Generator: Adobe Illustrator 19.0.0, SVG Export Plug-In . SVG Version: 6.00 Build 0)  -->
<svg version="1.1" id="Layer_1" xmlns="http://www.w3.org/2000/svg" xmlns:xlink="http://www.w3.org/1999/xlink" x="0px" y="0px"
	 viewBox="0 0 600 600" style="enable-background:new 0 0 600 600;" xml:space="preserve">
<g id="XMLID_3_">
	<g id="XMLID_1_">
		<path id="XMLID_212_" d="M417.1,240.7c2.8-1.6,5.6-3,8.9-3.2c1.2-0.1,2.5-0.1,3.7-0.3c2.9-0.4,5.6,0.2,8,2c0.4,0.3,1,0.5,1.4,0.4
			c3.6-0.6,7.2-1.2,10.9-1.8c0.4-0.1,1-0.1,1.1-0.4c1.4-2.5,2.7-5,4.2-7.9c-2.4-0.6-4.3-1.3-6.3-1.7c-5.9-1-11.9-1.9-17-5.3
			c-5.6-3.7-11.2-7.4-16.7-11.4c-3.3-2.4-6.6-5-9.3-8c-5.8-6.6-7-14.8-7.3-23.2c-0.2-4.2,0.3-8.3,0.2-12.5c0-9.5,1-18.9,2.4-28.2
			c1.9-12.2,7.4-22.8,15.2-32.1c4.6-5.4,9.8-10.2,16.4-13c6.7-2.8,13.3-5.9,20.2-8.3c4-1.4,8.3-2,12.6-2.3c9-0.6,17.9,0.6,26.8,2.8
			c9.4,2.3,18.8,4.4,27.1,9.7c3.8,2.4,7.4,5,11.3,7.2c9.2,5.2,18,10.9,26.1,17.7c5.3,4.4,9.6,9.7,12.5,15.7
			c5.5,11.3,7.9,23.5,8.4,36.1c0.5,12.9-0.9,25.7-2,38.6c-1,11.5-2.5,23-3.9,34.5c-0.3,2.5-0.5,5.2-2.9,6.9c-2.8,2-5.5,4.2-8.5,6
			c-4.8,2.9-9.8,4.6-15.3,3.9c-4.1-0.6-8.2-1.4-12.2-2.4c-4.9-1.3-9.8-2.9-15.1-4.6c0.5,1.1,0.7,1.6,0.9,2.1c1.6,3.7,2,7.5,1.4,11.5
			c-0.3,1.7-0.7,2.8-2.3,2.1c0.2,3.7,0.6,7.4,0.7,11.1c0.1,4.1-0.5,4.6-4.4,3.6c-0.1,0.8-0.2,1.6-0.4,2.3c-1.1,4.6-1.9,9.5-5.5,12.9
			c-1.3,1.2-1.2,2.3-0.7,3.7c1.9,5,3.7,10.1,5.6,15.1c6.2,17.3,12.2,34.6,15.7,52.7c1.3,6.8,2.9,13.6,4.3,20.5
			c0.3,1.6-0.2,2.9-1.8,3.6c-4.5,1.9-9,3.8-13.5,5.7c-1,0.4-1.4,0.8-1.4,1.9c0.1,8.6,0.1,17.2,0.1,25.7c0,6.4,0.2,12.9,0.3,19.3
			c0,10.1,0.2,20.3,2.7,30.1c1.4,5.8,4.3,10.7,10,13.6c2.3,1.1,4.4,2.7,6.4,4.3c4.2,3.3,3.4,9.1-1.4,11.3c-1,0.5-2,1-3,1.3
			c-4.3,1.3-8.4,1.2-11.6-2.5c-2.5-2.9-5.5-5-8.9-6.6c-1.5-0.7-2.3-1.8-2.2-3.5c0.1-1,0.1-2.1,0.3-3.1c1.2-4.7,1-9.4-0.7-13.9
			c-2.9-7.6-5.9-15.2-8.9-22.7c-3.3-8.3-6.9-16.5-10-24.9c-2.5-6.7-4.3-13.6-6.5-20.4c-0.2-0.5-0.8-1.1-1.2-1.2
			c-1.1-0.1-2.3,0.2-3.7,0.4c1.2,4.4,2.1,8.7,3.5,12.8c1.3,4.2,1.6,8.4,1.6,12.7c0,7.5-0.3,15-0.1,22.4c0.2,6.5,0.9,13,1.3,19.5
			c0.3,3.8-0.7,5.4-4.5,6.1c-5.4,1-10.7,1.9-16.1,2.5c-4.5,0.5-9,0.3-13.5,0.5c-3.8,0.1-5.1-4.2-3.8-6.8c1.4-2.9,3.5-4.8,6.6-5.7
			c3.8-1.1,7.7-2,11.4-3.4c5.2-1.8,7.4-4.7,6.8-9.1c-0.2-1.8-0.4-3.6-0.8-5.4c-1.5-8.3-4.4-16-9.1-23c-4.9-7.3-9.7-14.7-14.4-22.2
			c-1-1.5-2.1-2.2-3.8-2.6c-5.2-1.2-10.6-2.1-15.6-4c-6.4-2.5-12.3-5.9-18.5-8.8c-1.5-0.7-2-1.5-1.8-3c0.9-7,1.5-14,2.6-21
			c1.6-10.7,3.4-21.4,5.3-32.1c1.3-7.2,3-14.2,4.4-21.4c0.5-2.8,0.7-5.8,1-8.9c-0.6,0.4-1,0.6-1.4,0.8c-3.2,1.3-6.3,2.7-9.9,1.9
			c-2.5-0.5-2.8-0.9-1.7-3.3c-1.1-0.5-2.3-0.9-3.3-1.5c-2-1.1-4-2.3-5.9-3.6c-1.2-0.9-2.2-2-0.6-3.5c-1.7-1.2-3.3-2.3-4.8-3.4
			c-2.2-1.7-2.6-3-1.8-5.2c-1.4-1.5-2.7-2.9-4-4.4c-0.3-0.4-0.4-1-0.5-1.5c-0.2-0.6-0.3-1.3-0.6-1.8c-0.6-1-1.9-2-2-3
			c-0.1-1.4-0.9-2.1-1.5-3.1c-0.6-1-0.9-2.1-1.3-3.2c0.2-0.1,0.3-0.2,0.5-0.3c-1.6-1-3.7-1.6-3.5-4.2c0-0.2-0.6-0.6-0.9-0.8
			c-2.4-1.6-2.5-1.9-1.4-4.4c-0.7-0.9-2-1.8-2-2.7c0-1.9-1.1-3-2-4.3c-0.4-0.6-1.3-1.1-2-1.2c-2.7-0.3-5.4-0.3-8.1-0.5
			c-3.5-0.3-7-1.1-10.6-1.1c-4.3,0-8-1.5-11.6-3.5c-0.5-0.3-1.2-1.4-1-1.8c0.3-0.7,1.1-1.6,1.8-1.7c1.5-0.2,3,0,4.6,0.1
			c1.1,0.1,2.2,0.4,3.7,0.7c-1.2-1.7-2.1-3.1-3-4.4c-1.3-1.9-1.7-4.1-1-6.1c0.3-1,1.6-2,2.7-2.3c1.3-0.3,1.7,1,1.8,2.2
			c0.1,0.7,0.4,1.4,0.6,2.4c0.2-0.6,0.3-0.9,0.5-1.1c0.6-0.6,1.3-1.1,2-1.7c0.4,0.6,1,1.1,1.3,1.8c0.5,1.3,0.8,2.7,1.3,4
			c0.5,1.5,1.7,2.7,3.2,2.5c2.6-0.4,5.1-1.2,7.8-1.8c-0.8-1.8-2.3-3.1-0.7-4.4c1.4-1.1,2.9-0.1,4.2,0.8c0.3,0.3,0.7,0.5,1,0.8
			c2.8,2,5.6,4.1,8.3,6.1c1.1-2.4,2.2-2.8,4.2-1.6c0.5,0.3,0.8,0.8,1.3,1.1c1.1,0.6,2.2,1.6,3.3,1.8c2.8,0.5,4.7,2.1,6.2,4.2
			c2,2.7,3.8,5.5,5.7,8.3c1.1,0.1,2.1,0.4,3,1c0.9,0.5,1.6,1.4,2.5,1.9c0.3,0.2,1.2,0,1.5-0.3c1.1-1.3,2-2.7,3.1-4.2
			c-0.4-0.1-0.8-0.2-1.1-0.2c-2.6-0.2-3.2-1.1-1.9-3.4c0.9-1.6,1.8-3.2,3-4.6c1.9-2.3,4.1-4.4,6.3-6.6
			C413.5,243.6,413.7,242.7,417.1,240.7z M455.8,217.2c-0.7-8.5-4.2-16.3-6.5-24.4c-2-7-3.8-14.2-5.2-21.3
			c-0.9-4.3-0.4-8.7,1.7-12.7c3.8-7.5,8.4-14.5,13.5-21.2c0.4-0.6,0.9-1.2,1.1-1.9c1.8-4.8,4.7-8.8,8-12.6c4-4.7,9.4-6.5,15.3-7.1
			c5-0.6,10,0.5,14.7,2c5.8,1.9,9.7,6.3,12.6,11.5c2.9,5.4,4.8,11,4.5,17.2c0,0.5,0.2,1.1,0.5,1.3c3.9,2.6,7.7,5.1,11.6,7.7
			c1.5-1.7,3-3.4,4.4-5c7.7-8.7,21.7-8.7,29.7-2c6.1,5.2,9.8,11.9,10.1,20.3c0.3,8.2-1.4,15.8-6.4,22.5c-0.3,0.4-0.4,0.9-0.4,1.4
			c-0.1,6.1,0,12.1-0.2,18.2c-0.5,11.9-4.1,22.8-11.1,32.6c-2,2.8-4,5.7-6,8.6c-0.3,0.5-1.1,0.6-1.7,0.8c0.1-0.6,0.1-1.3,0.3-1.8
			c3.4-6.8,7.6-13.2,9.4-20.7c1.5-6.1,2.5-12.3,3.6-18.6c0.9-5.3,1.4-10.7,2.2-16.1c-6.6,5.5-14.1,6.6-22.5,4.4
			c-3.1,7.2-6.6,14.2-13.1,19.2c-6.5,5-13.9,7.3-22.2,7.9c0.6,0.5,1.3,1,1.9,1.5c2.4,2,2.4,2.7,0.2,4.6c2.5,2.2,5.1,4.4,7.6,6.7
			c3.5,3.3,5.9,7.3,7.4,11.9c0.2,0.6,0.7,1.3,1.1,1.4c5.2,1.4,10.5,2.8,15.8,4c4.6,1.1,9.3,1.3,14.1,0.6c0.2,0,0.5,0,0.7-0.1
			c4.5-1.8,8.8-3.8,12.6-6.9c1.9-1.5,2.5-3.6,2.8-5.8c1.2-10.8,2.7-21.7,3.5-32.5c1-12.6,2-25.3,2.2-38c0.3-12.1-2.7-23.9-7.8-34.9
			c-3-6.4-7.7-11.7-13.3-16.3c-6.9-5.6-14.4-10.4-22.1-14.9c-1.5-0.9-3-1.9-4.6-2.7c-5.5-3.2-11-6.8-16.7-9.6
			c-3.6-1.7-7.6-2.6-11.5-3.6c-5.2-1.3-10.4-2.7-15.7-3.5c-12.5-2-24.6-1-36.1,4.9c-3.1,1.6-6.5,2.7-9.7,4.3
			c-10.1,4.9-16.8,13-22.3,22.5c-4.7,8.2-6.7,17.1-7.8,26.4c-1.3,10.7-1.5,21.5-1.7,32.3c-0.1,5.5,1,10.9,3.1,15.9
			c0.9,2.2,2.3,4.5,4.1,6c6.3,5.3,12.7,10.4,19.3,15.3c4.6,3.4,9.8,5.5,15.4,6.7c3.4,0.7,6.6,2,10.4,3.1
			C456.2,223.6,456,220.4,455.8,217.2z M413.3,371.8c-0.3,1.7,0.3,2.4,1.9,2.8c7.2,1.7,14.3,3.7,21.5,5.3c3,0.7,6.1,0.7,9.1,0.9
			c7.3,0.4,14.7,1.2,22,1.1c10.7-0.1,21.3-1.5,31.8-4.4c5.7-1.6,11.5-3,16.6-6.1c0.2-0.1,0.6,0,1.1,0.4c-1.2,0.7-2.4,1.5-3.7,2.1
			c-9.7,4.6-19.9,7.4-30.5,9.1c-6.7,1-13.5,1.7-20.3,1.8c-6.4,0.1-12.7-0.9-19.1-1.1c-10.6-0.3-20.7-3.3-30.9-6.5
			c-0.8,5.8-1.7,11.6-2.6,17.7c5.4,2.5,10.8,5.2,16.3,7.5c7.8,3.3,16.1,4.7,24.4,5.8c11.7,1.5,23.3,0.9,35-0.6
			c10.3-1.3,20-4.6,29.8-7.7c4.3-1.4,8.5-3.1,12.7-4.7c1.3-0.5,1.7-1.1,1.4-2.6c-4.2-20.6-9.1-41.1-15.8-61
			c-2.9-8.7-5.9-17.4-8.8-26.1c-0.1-0.3-0.3-0.5-0.2-0.5c-1.5-0.1-2.8-0.1-4.6-0.2c-2.8,3.2-7.1,5.2-11.9,5.6
			c-2.6,0.2-4.9,1.1-7.3,1.5c-2.9,0.5-6,1-8.8-0.8c-0.4-0.3-1.2-0.1-1.7,0c-2.2,0.6-4.4,1.2-6.5,1.8c-1.6,0.5-3,0.2-4.3-0.9
			c-0.4-0.4-1.2-0.6-1.8-0.5c-6,0.9-12,0.7-18,0c-0.4,0-0.9-0.1-1.2,0.2c-2.3,2.4-5.6,4.1-5.8,8.1c0,0.4-1.1,1.1-1.7,1.1
			c-1.8,0-3.9-2-4.4-3.7c-0.3-0.8-0.8-1.6-1.4-2.3c-0.8-1.1-1.8-2.2-2.9-3.5c-0.2,0.3-0.7,0.9-0.7,1.5c-0.1,3.5,0,7,0,10.5
			c27.4,4.9,54.9,5.5,82.8,1c-2.4,1.9-29.7,5.1-41.5,5.5c-14.1,0.6-28-1.1-42.2-3.1c-1.3,6.8-2.7,13.5-4,20.4
			c15.8,3.8,31.6,5.9,47.5,5.2c15.8-0.7,31.6-1.7,47-5.4c-15.3,5.1-31.1,7.1-47.1,8.1c-16.1,1-32-1.3-47.9-6
			C415.7,356.9,414.5,364.4,413.3,371.8z M527.3,192.5c-1.9-1.7-3.3-3.9-4.7-6c-1-1.6-0.6-2.5,0.6-4.1c0.8-1,1.2-2.2,1.7-3.3
			c-0.5-0.4-1-0.7-1.6-1c-1,1.1-2.3,2.5-3.5,3.9c0.9-3.7,3.6-6.8,5.7-6.7c0.2-4.4-1.6-8.1-4.3-11.4c-3.4-4.1-7.1-4.8-11.5-1.7
			c-2.4,1.7-4.6,3.7-6.6,5.8c-3.3,3.6-3.5,8.2-0.5,12c0.8,1,2.2,1.6,3.4,2.3c1.1,0.6,2.3,1.1,3.3,1.9c-6.9-0.7-11.5-4-11.1-13.2
			c-1.6,0.3-3.2,0.8-4.8,0.9c-5,0.1-10.1,0.5-15,0c-4.6-0.5-8.3-3.4-11.2-7c-3.7-4.6-6.7-9.7-7.8-15.6c-0.3-1.7-0.3-3.4-0.4-5.1
			c0-0.6-0.1-1.3-0.1-1.9c-0.2,0-0.3-0.1-0.5-0.1c-2.1,3.9-3.9,8-6.3,11.7c-5,7.7-5.4,15.7-2.9,24.3c2,6.9,3.4,14,5.2,21
			c1,3.7,2.5,7.3,3.3,11.1c1.3,5.6,2.3,11.4,1,17.1c-0.7,3.1-2.5,5.9-3.8,8.8c-0.4,0.9-1.1,1.8-1.7,2.8c3.6,1.9,7.2,1.9,10.8,1.2
			c3.3-0.6,6-2.1,7.8-5c4-6.3,9.9-8.6,17-9.3c7-0.6,14-1.4,20.9-2.5c7.2-1.1,13-5.2,17.6-10.5c3.5-4.1,6.3-8.8,9.3-13.2
			C533.4,197.2,530.1,195.1,527.3,192.5z M459.4,295.3c-0.1,0.2-0.2,0.4-0.3,0.6c-1.9-0.8-3.8-1.6-5.5-2.5c-0.3-0.2-0.4-1.3-0.1-1.8
			c0.7-1.3,1.6-2.4,2.2-3.9c-5.7,2.3-11.4,4.6-17.4,7c1.4,1,1.3,2.2,1.4,3.7c0.2,2.2,0.9,4.3-0.2,6.4c-0.1,0.1,0.3,0.5,0.4,0.8
			c0.7,1.2,1.4,2.4,2.3,4.1c5.1-0.3,10.6-0.6,16.1-0.9c1.4-0.1,2.8-0.4,3.7,1.2c0.2,0.3,1.2,0.4,1.8,0.2c3-0.8,6-1.7,9-2.4
			c0.6-0.1,1.9,0.2,2,0.6c0.5,1.3,1.4,1.2,2.3,1.2c7.1,0,10.4-2.4,13.5-9.4c0.6-1.2,1.1-2.5,1.6-3.7c0.2,0.1,0.5,0.2,0.7,0.3
			c-0.7,1.8-1.3,3.6-2,5.4c-0.8,1.8-1.8,3.6-2.7,5.4c3.1,0.3,8.4-2.5,12.4-6.4c3.6-3.5,4.7-8.1,6.3-13.2c0.3,0.8,0.5,1.2,0.4,1.4
			c-0.9,3.2-1.8,6.3-2.7,9.5c-0.2,0.6-0.4,1.2-0.5,1.9c0.2,0.1,0.4,0.2,0.6,0.4c1.2-1.6,2.8-3,3.6-4.8c1.4-3.1,2.5-6.4,3.6-9.6
			c0.8-2.6,0.9-2.8,3.7-2.4c0.3-5.1,0-10.2-0.8-15.3c-0.8-5-0.1-10.2-2.3-15c3.2,3.5,3.6,8.2,5.4,12.2c0.2,0,0.4-0.1,0.6-0.1
			c-0.5-2.4-0.8-4.7-1.4-7c-0.3-1.3-1.1-2.5-1.6-3.7c-1.1-2.4-0.6-3.3,2.5-3.5c-1.5-2.7-2.5-5.3-4.3-7.5c-2.6-3.3-5.7-6.2-8.6-9.3
			c-0.7-0.7-1.5-1.4-2.7-0.8c-0.3,0.1-1-0.1-1.1-0.3c-0.1-0.4,0-1,0.2-1.3c0.4-0.6,1-1.2,1.6-1.8c-1.4-2.3-3.9-2.8-6.3-2.9
			c-4-0.2-8.1-0.1-12.1,0.5c-4,0.6-7.2,3-9.5,6.4c-1.1,1.6-2.6,2.9-3.3,4.6c-0.6,1.5-0.7,3.3-0.6,5c0.4,4.7,1.1,9.4,1.7,14
			c0,0.3,0.2,0.6,0.3,0.8c3.1,0.3,3.1,0.3,2.9,3.4c-0.1,1.8-0.1,3.7,0,5.5c0,1.6,0.4,3,1.9,4.1c0.9,0.6,1.4,2,1.7,3.1
			c0.5,1.6-0.3,2.8-2,3.4c-3.7,1.2-7.5,2.2-11.1,3.6c-3.3,1.3-6.6,2.8-9.4,4.8c-1.5,1.1-2.2,3.4-3.3,5.3
			C455.9,293.3,457.7,294.3,459.4,295.3z M389.4,257c0,0.2-0.3,0.4-0.5,0.7c-0.2-0.2-0.7-0.5-0.7-0.6c0.4-3-1.3-4.2-3.8-4.9
			c-0.9-0.3-1.6-1.1-2.4-1.7c0.1,1.2,0.2,2.4,0.3,3.5c-0.2,0.1-0.5,0.1-0.7,0.2c-0.2-0.6-0.5-1.3-0.7-1.9c-0.7,0.2-1.5,0.7-2.2,0.7
			c-1.5,0.1-2.5,0.4-2.3,2.2c0,0.4-0.6,1-1.1,1.2c-0.8,0.4-1.6,0.5-2.4,0.8c0.9,4.1,4.9,4.8,7.8,6.7c-0.1,0.2-0.2,0.4-0.4,0.5
			c-1.6-0.3-3.1-0.7-4.7-1c-0.1,0.2-0.2,0.3-0.3,0.5c1.7,1.2,3.3,2.3,5.1,3.6c-1.4,0.7-3.2-1.1-3.8,1.3c0.5,0.3,1,0.5,1.5,0.9
			c0.6,0.4,1.5,1,1.5,1.5c0,3.3,3,3.2,4.8,4.4c1.1,0.7,2.8,0.7,3.5,2.5c-1.8-0.3-3.4-0.6-5.3-0.8c1.4,3.3,4.9,3.4,6.9,5.3
			c0,0.2-0.1,0.4-0.1,0.6c-0.6-0.1-1.1-0.2-1.7-0.3c-0.7-0.2-1.4-0.4-2.1-0.6c-0.1,0.1-0.2,0.3-0.3,0.4c0.8,0.8,1.5,1.7,2.4,2.3
			c1.2,0.9,1.5,1.7,0.2,3c1.4,1.2,2.7,2.4,4,3.6c1.6,1.4,1.6,2.2-0.5,3.5c0.9,0.8,1.6,1.7,2.5,2.4c1.4,1,2.8,1.9,4.3,2.9
			c1.8,1.2,1.8,1.5,0,3.4c1.9,1.1,3.7,2.2,5.5,3.2c1.1,0.6,2.2,1,3.4,1.5c1.6,0.7,2.9,1.4,1.4,3.5c4.2,0.8,7.4-1.1,10.9-2.4
			c-1-1.6-1.9-3.1-2.9-4.4c-0.3-0.4-0.9-0.6-1.4-0.6c-3.1-0.4-6.2-0.7-9.2-1.5c3-0.2,6-0.3,8.7-0.5c-1.1-4.3-2.2-8.5-3.5-12.8
			c-0.4-1.5,0-2.2,1.6-2.3c2.1-0.1,4.2-0.2,6.3,0.1c-2.3,0.6-4.6,1.1-6.9,1.7c1,4.5,2.4,8.5,4.9,12.1c0.7,1,1.3,1.4,2.5,1.1
			c2.3-0.6,4.7-1.2,7.1-1.7c0.1,0.1,0.1,0.3,0.2,0.4c-2.5,1.1-5,2.2-7.8,3.4c1,1.6,2.1,3.3,3.4,5.4c2.5-3.4,4.8-6.5,7.3-9.8
			c-4.6-3.9-6.9-8.9-8-14.6c0.1-0.1,0.3-0.2,0.4-0.2c0.3,0.6,0.8,1.2,1,1.9c1.4,4.1,3.5,7.7,6.4,10.8c1.2,1.4,1.9,1.5,2.8,0
			c1.2-2,2.4-4.1,2.9-6.3c0.3-1.4-0.8-3.1-1.5-4.6c-0.5-1.1-1.3-2.1-2.1-3c-0.7-0.7-1.7-1.1-2.6-1.4c-0.9-0.3-1.8-0.4-2.7-0.7
			c4.5-1,5.5-0.5,9.8,5.5c-0.1-0.6,0-1-0.1-1.3c-1.1-3.5-2.1-6.9-3.2-10.3c-0.2-0.6-1-1.2-1.6-1.3c-2.1-0.5-4.3-0.7-6.4-1.1
			c0-0.2,0-0.4,0-0.6c2.6-0.1,5.1-0.3,7.7-0.2c1.9,0.1,2.3-0.1,1.6-2c-1.1-3.2-2.3-6.3-3.6-9.4c-0.2-0.5-1-1-1.5-1
			c-2.5-0.2-5-0.3-7.5-0.4c-0.7,0-1.4,0-2.1-0.2c5-1.7,10.1-1.5,15.4-0.4c-0.9-2.9-4.1-3.7-4.6-6.1c1.2-0.7,2-1.1,2.8-1.6
			c0-0.2-0.1-0.4-0.1-0.6c-2.8-1.4-5.5-2.7-8.3-4.1c1.5-0.7,4-0.3,6.5,1.2c2,1.2,3.8,2.6,5.8,4c0.3-3.3,0.6-6.4,0.8-9.6
			c0-0.4-0.2-0.9-0.5-1.1c-1.6-0.7-3.2-1.9-4.8-2c-5.8-0.2-11.5,0.8-16.3,4.6c0.5,2,0.9,2.2,3,1.9c1.1-0.2,2.3-0.2,3.5-0.3
			c0,0.2,0.1,0.3,0.1,0.5c-1.3,0.5-2.6,1-3.9,1.6c-3.6,1.5-4.4,2.9-4.2,6.9c0.1,1-0.1,2-0.2,3c-0.2,0-0.4,0-0.6,0c0-1.7,0-3.5,0-5.2
			c-0.2-0.1-0.4-0.2-0.7-0.3c-1.9,2.4-3.8,4.8-5.7,7.3c0.1,0.2,0.2,0.4,0.3,0.6c1.4,0,2.9,0,4.7,0c-1.8,2.6-3.3,4.7-4.9,6.9
			c2.4,2.3,4.1,4.7,4.3,8c0,0.3,0.4,0.7,0.8,0.9c1.5,0.9,3.1,1.7,4.6,2.6c0.4,0.2,0.6,0.7,0.7,1.2c0.7,1.9,1.2,3.8,2,6.1
			c-0.7-0.5-1.3-0.9-1.7-1.4c-0.7-1.1-1.6-2.2-1.8-3.4c-0.3-2.3-1.9-3.1-3.6-3.7c-1.8-0.6-2.9-1.5-3.3-3.6c-0.3-1.9-1.4-3.8-3.6-4.8
			c0.4,2.3,0.8,4.3,1.2,6.4c-0.2,0.1-0.5,0.1-0.7,0.2c-0.2-0.4-0.6-0.7-0.7-1.1c-0.2-0.7-0.5-1.4-0.5-2.1c0.2-3.3-2.7-4.3-4.4-6.2
			c-0.1-0.1-0.4-0.3-0.5-0.2c-2.4,0.9-2.9-1.1-3.8-2.5c-1.6-2.2-3.2-4.5-4.9-6.6c-0.6-0.7-1.4-1.3-2.5-2.3
			C389.3,255.5,389.4,256.2,389.4,257z M485.6,411c2.1,6.3,4,12.6,6.3,18.7c3.4,9,7.2,17.9,10.7,26.9c3.2,8.4,6.4,16.8,9.4,25.3
			c1.4,4.2,1.4,8.5,0.2,12.9c-0.8,2.8-0.6,2.7,1.8,4.3c2.7,1.8,5.4,3.8,7.8,6c2.4,2.3,5,3,8.1,2.2c1.1-0.3,2.2-0.6,3.3-1
			c2.6-1,3.2-4.2,1-6c-1.8-1.4-3.5-2.9-5.5-3.9c-7.1-3.5-10.6-9.7-12.5-16.9c-2.5-9.6-3.2-19.6-3.4-29.5c-0.1-7.1-0.5-14.2-0.3-21.3
			c0.3-7.5,1.1-14.9,1.7-22.4c0.1-0.7,0.1-1.4,0.2-2.4C504.7,406.8,495.5,410.1,485.6,411z M450.5,411.9c2.8,4.5,5.6,9.5,9,14.1
			c7.4,10.1,12.1,21.2,14.1,33.5c0.4,2.5,0.7,5.1,0.4,7.5c-0.6,4.5-4.1,6.7-8,8.1c-3.5,1.2-7.2,2-10.8,3c-2.2,0.6-4.4,1.4-5.7,3.4
			c-0.5,0.8-0.9,2-0.7,2.8c0.2,0.6,1.6,1.1,2.4,1.1c3.4-0.1,6.7-0.4,10-0.8c5.1-0.5,10.1-1.1,15.1-1.8c6.6-0.9,5.5-0.3,5.1-5.9
			c-0.9-11.5-2.3-22.9-2.2-34.5c0-4.5-0.1-9-0.7-13.4c-0.7-4.8-1.9-9.6-2.9-14.4c-0.2-0.8-0.2-1.6-0.4-2.9
			C466.9,411.9,458.6,411.9,450.5,411.9z M470.8,260.2c-0.6-4.7-0.8-9.4-1.2-14c0-0.6,0-1.3-0.3-2c-1.1,2.2-2.3,4.3-3.2,6.5
			c-3,7.5-7.1,14.5-11.5,21.3c-1.6,2.5-3.7,4.7-5.7,7c-0.4,0.4-1.1,0.5-1.7,0.8c-0.2-0.6-0.4-1.1-0.5-1.7c-0.5-4.3-1.3-8.5-1.5-12.8
			c-0.3-5.4-0.2-10.9-0.2-16.4c0-2.6,0-5.1,0-8c-2,0.4-3.7,0.7-5.8,1.1c-0.3,3.4-0.7,6.9-1.1,10.3c0,0.3-0.8,0.9-1.2,0.8
			c-0.9-0.2-1.7-0.6-2.5-1c-1.3,1.1-1.1,2.1,0,3.3c0.9,1,1.7,2.2,2.5,3.4c0.7,1,0.3,1.7-1,1.9c-1,0.1-1.9,0.3-3,0.5
			c1,2.7,2,5.2,3,7.8c0.3,0.9,0.8,1.9,0.7,2.8c0,0.8-0.5,1.9-1.1,2.2c-1.1,0.6-1,1.1-0.7,2c1.2,3.8,2.4,7.6,3.4,11.4
			c0.3,1.2,0.3,2.4,0.5,3.8c3.7-1.5,7.3-3.1,11-4.6c2.6-1.1,5.2-2,7.8-3.2c2.8-1.3,5.3-3,8.1-4.1c3.5-1.3,7.1-2.1,10.7-3.1
			c0.4-0.1,0.8-0.3,1.7-0.7c-0.9-0.9-1.5-1.9-2.3-2.3c-1.1-0.5-1.7-1.2-1.7-2.3c-0.1-3,0-6.1,0-9.3
			C471.8,262.5,471,262.4,470.8,260.2z M470.9,159.7c8.1,10.3,24.5,9.3,32.2,0.7c3.8-4.2,5.7-9,5.3-14.7c-0.1-1.7-0.9-2.5-2.4-3
			c-6.1-2.3-12.1-4.5-18.1-6.9c-3.7-1.5-7.2-3.3-10.8-4.9c-1.3-0.6-2.7-1.1-4.1-1.4c-0.4-0.1-1.1,0.3-1.4,0.7
			c-3.9,4.3-5.3,9.5-5.5,15.2c0,0.7,0,1.3,0,1.7C465.4,152.3,468,156,470.9,159.7z M537.6,162.7c6.3,2.8,7.2,8.8,6.1,14
			c-0.4,1.7-1.4,2.5-3.1,2.6c-4,0.4-7.8-0.2-11.2-2.6c-0.3-0.3-0.7-0.5-1.1-0.7c0,0-0.1,0-0.2,0c-0.8,1.4-0.7,2.7-0.1,4.3
			c2.8,7.2,7.9,11.8,14.9,14.6c0.4,0.2,0.8,0.3,1.2,0.4c3.6,0.9,5.1,0.2,6-3.3c1.6-5.6,3-11.3,4.5-17c0.1-0.5,0.1-1,0.4-1.4
			c1.5-2.5,0.2-4.3-1.7-5.8c-5.2-4.2-11-7.5-17.3-9.7c-0.5-0.2-1.4,0.2-1.8,0.6c-0.8,0.7-1.3,1.7-1.9,2.6
			C534.2,161.8,536,162,537.6,162.7z M462.4,243.1c-0.5,0.1-0.9,0.6-1.2,1c-3.7,5-7.4,10-11.2,15c-0.1,0.2-0.4,0.3-0.9,0.3
			c0.3-6.6,0.9-13.1,1.7-19.9c-1.4,0.3-2.8,0.7-4,0.9c-0.3,12.3-0.9,24.5,1.6,36.7c8.7-10.7,14-23.5,20.6-35.5
			C466.7,242.1,464.5,242.5,462.4,243.1z M346.1,244.7c1.2,2.1,2.7,4.1,4.1,6.1c0.1,0.2,0.3,0.4,0.5,0.7c-3.8,1.7-7.4-1-11.3-0.2
			c0.3,0.5,0.5,0.8,0.7,0.9c3,1.4,6.1,2.5,9.4,2.7c6.6,0.5,13.1,1.3,19.7,2.1c0.8,0.1,1.5,0.2,2-0.8c0.1-0.4,0.6-0.7,0.9-0.8
			c1.4-0.4,2.1-1.3,2.6-2.7c0.3-0.8,1.6-1.2,2.2-1.7c-3.3-2.7-6.8-5.6-10.3-8.4c-0.2-0.2-0.6-0.1-1.3-0.2c0.4,0.7,0.5,1.2,0.8,1.6
			c1.1,1.7,0.8,2.6-1.1,3.4c-0.5,0.2-1.1,0.3-1.6,0.4c-0.5,0.1-0.9,0.2-1.4,0.6c1.7,0,3.3,0,5,0c0,0.2,0,0.3,0,0.5
			c-1.7,0.2-3.5,0.5-5.2,0.7c-0.1,0-0.2,0-0.4,0c-6.9,0.2-7.8-0.6-9.5-7.4c-0.1-0.4-0.3-0.8-0.9-1.2c-0.2,1.9-0.7,3.8-0.5,5.7
			c0.1,1.8,0.9,3.6,1.4,5.4c-0.2,0.1-0.4,0.1-0.6,0.2c-0.6-2.1-1.3-4.2-1.9-6.3c-0.2-0.5-0.3-1.1-0.5-1.5c-0.7-1.7-1.5-3.4-2.3-5.2
			C345.2,240.1,344.8,242.4,346.1,244.7z M550.6,160.8c3.9,2,7.4,4.7,8.7,9.1c0.9,3.3,0.9,6.9,1.2,10.3c0,0.3-0.4,0.6-0.6,0.9
			c-0.3-0.3-0.7-0.5-0.8-0.8c-0.5-1.8-0.9-3.6-1.4-5.6c-1.5,6.3-2.8,12.2-4.2,18.3c2.8-2,4.8-4.6,6.2-7.7c2.9-6.5,4.6-13.1,2.1-20.3
			c-2.5-7.2-7.2-11.7-14.9-12.6c-3.2-0.4-6,0.6-8.5,2.3C542.5,156.8,546.6,158.6,550.6,160.8z M475.8,126.4c10.7,4,21.4,8.2,31.3,14
			C504.1,124.7,489.2,120.3,475.8,126.4z M433.4,299.7c-3.4,1.9-4.6,5.5-7,8.2c-1.5,1.7-1,4,1.1,5.8c0.5-0.9,1-1.7,1.6-2.7
			c0,2.3-0.2,4.4,0.1,6.4c0.2,0.9,1.5,1.6,2.5,2.6c0.2-0.8,0.4-1.2,0.4-1.6c-0.2-3.3,1.4-5.5,4-7.2c0.4-0.3,0.8-0.6,1.2-0.8
			c2-1.5,3.1-1.7,0.4-4.2c-0.5-0.4-0.6-1.7-0.3-2.4c0.5-1.5,1.3-2.9,0.2-4.5c-0.2-0.2-0.1-0.8,0.1-1c0.8-1.5,0-2.1-1.3-2.7
			C435.4,297,434.7,299,433.4,299.7z M533.6,163.1c-1.7-0.3-3.2-0.1-3.8,1.9c-0.2,0.6-0.6,1.1-0.9,1.6c-2.1,3.4-1.3,7.1,2,9.3
			c2.9,2,6.2,2.4,9.7,2.1c0.6-0.1,1.5-0.8,1.8-1.5c0.4-1,0.3-2.1,0.4-3.2c-4.5-0.4-7.6-4.8-6.5-9.6
			C535.3,163.5,534.5,163.3,533.6,163.1z M451.7,241.1c-0.4,4.6-0.7,9.5-1.2,14.9c3.1-4.4,6-8.4,8.9-12.4
			C456.9,242.8,454.4,242,451.7,241.1z M515,150.8c-0.6,2-1.1,3.9-1.7,6.1c4.7-0.4,8.3,1.2,10.8,5.3c0.9-1.8,1.6-3.4,2.3-4.9
			C522.6,155.1,518.9,153,515,150.8z M537.6,164.7c-0.8,3.5,1.3,6.8,4.9,7.5c-0.7-1.1,0.4-2.7-1.9-2.7c-1.2,0-1.8-2.1-1.1-3.5
			C538.9,165.6,538.3,165.2,537.6,164.7z"/>
		<path id="XMLID_195_" d="M478.9,102.9c-0.3,0.1-0.7,0.2-1,0.4c-4.5,3.9-8.9,7.8-13.5,11.6c-4.3,3.5-7.7,7.8-10.8,12.2
			c-3.6,5.3-6.6,11-9.9,16.5c-0.3,0.5-0.5,1.1-0.8,1.6c-5.8,8.6-8.5,18.5-11.2,28.3c-2,7.2-3.7,14.6-5.4,21.9
			c-0.1,0.5-0.1,1.1-0.1,1.6c0.2,0.1,0.3,0.2,0.5,0.3c0.4-0.5,0.9-0.9,1.1-1.4c3-9.6,6-19.2,8.9-28.9c2.3-7.6,5.6-14.8,9.2-21.9
			c4.6-9,9.3-18,15.9-25.7c3.2-3.7,7.1-6.7,10.9-9.8C475,107.7,477.4,105.8,478.9,102.9z"/>
		<path id="XMLID_192_" d="M501.6,197.7c0.3-0.5,0.4-1.5,0.1-2.1c-1-2.2-2.2-4.4-3.2-6.6c-0.3-0.7-0.4-1.6-0.5-2.4
			c1.1,1.6,1.8,3.2,2.8,4.7c0.9,1.6,2,3,3.1,4.6c0.5-0.4,0.9-0.8,1.3-1.1c2.3-1.8,4.8-3.4,7.9-2.2c2.4,0.9,4.8,1.2,7.4,0.8
			c3-0.5,4.7,1.8,3.9,4.7c-1.9,7.2-8.9,9.3-14.4,4.3c-1.7-1.6-3.8-2.7-5.9-4.2c-2.1,3.1-3.9,5.7-5.7,8.3
			C498.7,203.3,500,200.4,501.6,197.7z M518.5,197.3c-2,0.7-3.9,0.6-5.9-0.2c-1.7-0.7-3.4-1.1-5.1-1.8c5,0.4,10,0.8,15.1,1.2
			c-0.2-1.4-1-1.9-2.2-1.7c-2.6,0.5-5,0.2-7.4-0.8c-3.2-1.3-5.4,0.6-7.4,2.3c2.3,1.8,4.7,3.5,6.9,5.4c2,1.7,3.9,2,6,0.4
			c1.5-1.2,2.8-2.8,4.1-4.3c-0.1-0.3-0.2-0.5-0.3-0.8C521,197.1,519.7,196.9,518.5,197.3z"/>
		<path id="XMLID_191_" d="M512.7,175.3c0.6,2.9,0.6,5.7-0.8,8.5c0.1,0.1,0.3,0.2,0.4,0.3c0.4-0.2,1-0.4,1-0.7
			c0.5-2.7,1.1-5.3,1.3-8c0.1-0.7-1.1-1.9-1.9-2.1c-0.7-0.2-2,0.5-2.6,1.1c-1.6,1.7-1.6,3.9-0.1,5.7c0.7-1.7,1.3-3.2,1.9-4.8
			C512.3,175.2,512.5,175.2,512.7,175.3z"/>
		<path id="XMLID_190_" d="M524.2,201.1c-0.1,0.7-0.3,1.4-0.4,2c-0.7,3.4-1.7,6.6-4.7,8.8c-1.8,1.4-3.4,3.1-5,4.6
			c0.1,0.2,0.3,0.4,0.4,0.5c2.6-2.1,5.5-3.9,7.7-6.4c2.2-2.6,2.3-6.2,2.5-9.5C524.5,201.1,524.3,201.1,524.2,201.1z"/>
		<path id="XMLID_189_" d="M492,244c3.1-2.4,6.3-4.9,9.8-7.6c3.1,4,6.1,7.8,9.1,11.6c0.4,0.4,0.9,0.7,1.4,1.1c0-0.7,0.2-1.5-0.1-1.9
			c-1.9-2.8-4-5.6-6.1-8.3c-0.9-1.1-1.8-2.2-2.9-3.1c-0.4-0.4-1.5-0.6-1.9-0.3c-2.9,2.2-5.7,4.6-8.5,7c-0.4,0.3-0.7,0.9-1,1.3
			C491.9,243.9,492,244,492,244z"/>
		<path id="XMLID_188_" d="M475.6,295.9c5.1-4.4,9.2-9.4,9.9-16.4c0.1-0.9-0.2-1.9-0.5-2.8c-0.3,6.8-4.3,11.7-8.3,16.5
			c-0.6,0.7-1.1,1.6-1.6,2.4C475.3,295.6,475.5,295.8,475.6,295.9z"/>
		<path id="XMLID_187_" d="M510.5,270.8c0,5.1,0,10.1,0,15.5c0.3-0.5,0.7-1,0.8-1.4c0.2-3,0.3-6.1,0.3-9.1c0-1.6-0.3-3.3-0.4-4.9
			C510.9,270.8,510.7,270.8,510.5,270.8z"/>
		<path id="XMLID_186_" d="M468.9,300.9c-2.4-1.1-4.8-2.1-7.3-3.2c2-2.8,3.8-5.3,5.6-7.8c-0.2-0.1-0.3-0.2-0.5-0.4
			c-1.2,1.4-2.4,2.8-3.6,4.2c-0.7,0.8-1.3,1.6-2,2.4c-1.2,1.5-1.2,2.4,0.6,3.1c2.2,0.9,4.6,1.5,6.9,2.2
			C468.7,301.3,468.8,301.1,468.9,300.9z"/>
		<path id="XMLID_185_" d="M474.7,298.4c-1.2,1.1-2.4,2.2-3.6,3.3c1.5,2.2,12.5,4.5,15.1,3.1c-4.7-0.9-9.2-1.8-14-2.8
			c1.1-1.3,1.9-2.4,2.7-3.4C474.8,298.5,474.7,298.5,474.7,298.4z"/>
		<path id="XMLID_184_" d="M492.4,251.3c3,6,6.1,12,9.2,18.2c0-0.5,0.1-1.1,0-1.6c-0.5-1.4-1-2.8-1.6-4.1c-1.9-3.8-3.8-7.5-5.7-11.3
			c-0.3-0.6-0.8-1.1-1.3-1.6C492.8,251.1,492.6,251.2,492.4,251.3z"/>
		<path id="XMLID_183_" d="M500.4,277.3c-0.9,6.3-1.1,12.9-5.6,18.4C498.4,294.4,501.7,283.7,500.4,277.3z"/>
		<path id="XMLID_182_" d="M479.3,265c2.8-5,5.6-10.1,8.5-15.1c-0.2-0.1-0.5-0.3-0.7-0.4c-3.1,4.9-6.3,9.7-8.5,15.1
			C478.8,264.7,479.1,264.8,479.3,265z"/>
		<path id="XMLID_181_" d="M469.4,286.4c1.6-1.4,3.2-2.8,5-4.4c-2.3,0.8-4,2.1-5.3,3.9c-0.4,0.5-0.1,2.1,0.3,2.3
			c2.9,1.6,6,1.8,9.2,1.1c-3-0.7-6-1.4-9-2.1C469.5,286.9,469.5,286.7,469.4,286.4z"/>
		<path id="XMLID_180_" d="M487.1,244.3c0-0.1,0-0.2,0-0.2c-4.3-1.8-8.7-3.2-13.4-2.4c-0.4,0.1-0.7,0.5-1,0.8
			c0.4,0.2,0.9,0.6,1.3,0.6c3.7,0.2,7.4,0.3,11.1,0.5C485.7,243.8,486.4,244.1,487.1,244.3z"/>
		<path id="XMLID_179_" d="M496.3,288.5c-4.4,0.3-8.9,0.6-13.5,1c1,1.3,2.5,1.6,4,1.3c2.8-0.4,5.6-1.1,8.5-1.7
			c0.4-0.1,0.8-0.2,1.2-0.3C496.4,288.8,496.3,288.6,496.3,288.5z"/>
		<path id="XMLID_178_" d="M498.9,256c3.6-1.3,7.2-2.7,10.9-4c-0.1-0.2-0.1-0.4-0.2-0.5c-3.8,0.9-7.5,1.8-10.9,3.9
			C498.7,255.5,498.8,255.8,498.9,256z"/>
		<path id="XMLID_177_" d="M509.3,286.2c-3-0.1-6,0.1-8.5,2.1C503.8,288.7,506.5,287.1,509.3,286.2z"/>
		<path id="XMLID_176_" d="M498.4,274.2c-4,0.9-7.9,1.8-12.2,2.8C487.9,278,495.1,276.3,498.4,274.2z"/>
		<path id="XMLID_175_" d="M490.9,263.1c-3.5,1.7-6.4,3.9-8.7,7c2.1-0.3,2.8-2.3,4.3-3.4C488.1,265.6,489.4,264.3,490.9,263.1z"/>
		<path id="XMLID_174_" d="M411.5,268.7c2.9-2.3,5.8-4.6,9.1-7.2c1.3,3,2.4,5.8,3.7,8.8c0.2-0.4,0.3-0.6,0.3-0.7
			c-0.9-2.6-1.7-5.2-2.7-7.8c-0.5-1.4-1.8-1.6-2.9-0.8c-2.6,2-5.2,4.1-7.7,6.2c-0.2,0.2-0.2,0.7-0.3,1.1
			C411.2,268.5,411.4,268.6,411.5,268.7z"/>
		<path id="XMLID_173_" d="M396.8,273.6c-2.3-0.2-4.3-0.4-6.3-0.6c0,0.3-0.1,0.6-0.1,0.9c4.7,1.2,9.6,1.5,14.3,2.8
			c0.1-0.2,0.1-0.4,0.2-0.6c-2.3-0.7-4.6-1.5-6.9-2.2c-0.1-2.3-0.3-4.6-0.4-6.9c-0.3,0-0.5,0-0.8,0
			C396.8,269.1,396.8,271.2,396.8,273.6z"/>
		<path id="XMLID_172_" d="M382.5,263.8c0.4,0.3,0.9,0.8,1.4,0.9c1.4,0.3,2.8,0.3,4.2,0.5c0.6,2.5-0.6,5.3,1,7.6
			c0.2,0,0.4,0,0.6-0.1c-0.2-2.5-0.5-4.9-0.7-7.6c2.2,0.3,4.2,0.6,6.1,0.9c0-0.2,0-0.3,0.1-0.5C391,264.2,386.9,263.1,382.5,263.8
			L382.5,263.8z"/>
		<path id="XMLID_171_" d="M416.6,276.2c2.1-0.1,4.3-0.3,6.7-0.5c0.2,1.8,0.4,3.5,0.5,5.2c0.2,0,0.4,0,0.6,0
			c0.3-1.9,0.4-3.8-0.1-5.8c-0.1-0.3-0.5-0.6-0.8-0.7C421,274.1,418.6,274.3,416.6,276.2z"/>
		<path id="XMLID_170_" d="M399.9,290.1c0,4.4,1.1,8.5,3.4,12.2c0.2-0.1,0.4-0.1,0.6-0.2C402.6,298.1,401.2,294.1,399.9,290.1z"/>
		<path id="XMLID_169_" d="M396.9,277.1c0.6,2.9,1.1,5.9,1.7,8.8c0,0.2,0.5,0.3,0.8,0.4c0.1-0.4,0.4-0.8,0.3-1.1
			c-0.5-1.9-1-3.9-1.5-5.8c-0.2-0.8-0.3-1.7-0.4-2.5C397.5,276.9,397.2,277,396.9,277.1z"/>
		<path id="XMLID_168_" d="M408.1,287.2c-2.2-0.6-4.3-1.2-6.5-1.7c-0.2-0.1-0.6,0.5-0.9,0.7c0.3,0.3,0.5,0.8,0.8,0.8
			c2.1,0.4,4.3,0.7,6.4,1C408,287.8,408,287.5,408.1,287.2z"/>
		<path id="XMLID_167_" d="M408.2,278c-0.8,3.2,0.1,7.4,1.9,8.3C409.5,283.6,408.8,280.8,408.2,278z"/>
		<path id="XMLID_166_" d="M381.5,267c0.1,1.8-0.3,3.7,0.9,5.5C383.5,270.2,383,267.4,381.5,267z"/>
		<path id="XMLID_165_" d="M391.8,284.3c-0.5-2.7-1.1-5.4-1.6-8.1c-0.7,2.8-0.2,5.3,1,7.8C391.3,284.1,391.7,284.2,391.8,284.3
			L391.8,284.3z"/>
		<path id="XMLID_164_" d="M391.9,284.2c0.1,0.3,0,0.8,0.2,1c0.7,0.8,3.9,1.1,5.3,0.5C395.5,284.8,393.8,284,391.9,284.2
			L391.9,284.2z"/>
		<path id="XMLID_163_" d="M382.5,263.8c0.2-2.2,0.3-4.4,0.5-6.5C381.7,258.2,381.6,262.3,382.5,263.8L382.5,263.8z"/>
		<path id="XMLID_159_" d="M485.8,141c4.6-0.8,9,0,12.9,2.8c2.8,2,4.8,4.4,5.5,7.7c0.8,3.9-2.7,8.9-6.3,8.7
			c-6-0.3-11.2-2.7-15.1-7.2c-1.6-1.9-2.7-4.3-4-6.5C480.1,143.2,482.6,141.6,485.8,141z M495.3,145.7c0.1-0.4-0.1-1.2-0.4-1.4
			c-3.4-2.6-11.3-1.9-14.4,1.2c0,0-0.1,0.1-0.1,0.1c2.1,5.3,5.3,9.6,10.8,11.8c2,0.8,4.1,1.3,6.2,1.6c2.3,0.3,3.8-1.4,4.3-4.5
			C496.7,153.7,494.5,150.6,495.3,145.7z M501.5,151c-2.8-0.2-3.3-0.9-2.2-3.6c-0.8-0.6-1.6-1.3-2.6-2c-0.8,4.7,1.6,8.3,5.3,7.6
			C501.8,152.2,501.7,151.6,501.5,151z"/>
	</g>
	<g id="XMLID_84_">
		<path id="XMLID_85_" d="M27.9,124.6c-0.3-0.4-0.8-0.5-1.3-0.4c-1,0.3-2.4,1.7-3,4.8c-5,15.6-7.5,32.4-7.6,49.8
			c0,6.4,0.6,11.5,2,15.9c0.6,1,1.8,1.6,3.3,1.6c2.8,0,3.3-1.6,3.3-2.9c0-1.2-0.8-1.3-1.4-1.4c-0.6-0.1-1-0.2-1.1-0.8
			c-0.8-10.8,0.4-21.9,1.6-32.7c0.4-3.4,0.8-6.9,1.1-10.3c0.6-5.1,1.5-10.6,2.4-15.4l0.4-2.5C28.7,127.7,28.8,125.5,27.9,124.6z"/>
		<path id="XMLID_335_" d="M51.7,186L51.7,186l0.2,0.1c0.1,0,0.2,0,0.3,0c0.2,0,0.4,0.1,0.5,0.1c0.2,0,0.4,0.1,0.6,0.1
			c1,0,1.3-0.6,1.7-1.5c0.8-2,1.5-4.1,2.1-6.4c0.6-1.9,1.1-3.9,1.8-5.7c0.3-0.5,0.6-1.3,1-2.2c0.5-1.5,1.1-3.1,2-3.3
			c0.3-0.1,0.6,0,0.9,0.2c0.7,0.7,1.2,2.1,1.8,3.5c0.9,2.3,2,4.9,4,6c0.3,0.1,0.7,0.2,1.2,0.2c1.3,0,2.7-0.8,2.8-2.4
			c0,0,0-0.1,0-0.1c0-0.2,0.1-0.5-0.4-0.7l-0.1,0c-0.1,0-0.1,0-0.2,0c-0.1,0-0.3-0.1-0.5-0.1l-0.1,0c-0.4,0.1-0.6,0.4-0.8,0.5l0,0.1
			c-0.5,0.9-0.7,1-0.8,0.9c-0.2,0-0.5-0.6-0.8-1.1c-0.8-2.7-1.8-5.2-2.9-7.9l-0.4-1l0-0.1c-0.5-0.6-1-1-1.7-1.4
			c-1-0.6-2.1-0.7-3.1-0.3c-0.9,0.4-1.7,1.1-2.1,2.2c-1.1,1.8-1.8,3.9-2.6,5.9c-0.3,0.8-0.6,1.6-0.9,2.4c-0.1-6.3,1.8-14.6,3.6-20.1
			c0.1-0.3,0.1-0.6-0.1-0.9c-0.2-0.3-0.5-0.4-0.8-0.4c-0.9-0.2-1.1-0.1-1.6,0.2c-0.8,0.4-1.4,0.7-1.9,1.6c-2.9,6.4-3.9,13.4-4.6,20
			l0,0c0,0.6-0.1,1.2-0.2,1.9C49.3,179.9,49,183.9,51.7,186z"/>
		<path id="XMLID_338_" d="M79.8,183.3c6,0,11.5-5.7,15.2-11.2c0,0.4,0,0.8-0.1,1.1c0,4.3,0,9.7,3.4,13.5c1.4,1.8,3.2,2.6,5.3,2.5
			c0.3,0,0.5,0.1,0.8,0.1c0.9,0,1.8-0.3,2.6-0.9c2.5-2.8,3.7-6.6,4.9-10.9c1.8-6.2,3.8-12.6,5.6-18.7c0.1-0.5,0.2-1,0.3-1.6
			c0.1-0.5,0.2-1,0.3-1.5c0.2-0.7,0.1-1.3-0.2-1.7c-0.3-0.3-0.8-0.4-1.5-0.3c-0.8,0.1-1,0.8-1.1,1.4c-1.8,6.4-3.8,13-6,19.3
			c-0.4,1.1-0.8,2.2-1.2,3.3c-1,2.9-2,5.9-4,8.1c-0.3,0.3-0.5,0.3-0.6,0.4c-0.2,0-0.4-0.2-0.7-0.5c-0.9-1.6-1.2-2.7-1.4-4.1
			c-0.3-1.7-0.4-3.4-0.4-5.5c-0.2-6.6,0.2-13.7,1.2-20.5c0.1-0.4,0.2-0.9,0.2-1.5c0-0.2-0.2-0.5-0.4-0.8c-0.1-0.1-0.2-0.2-0.3-0.3
			l0-0.1l-0.1,0c-0.8-0.3-1.6-0.4-2.5-0.1c-0.8,0.3-1.5,0.8-1.9,1.6l-0.2,0.5c-0.4,1-0.7,1.9-0.8,3c-0.6,2.8-1,5.8-1.3,8.7
			c-4.2,6.6-9.6,14.4-15.4,13.7c-1.7-0.2-3.1-3-2.7-7.9c0,0,0.1,0,0.3,0c0.2,0,0.5,0.1,0.8,0.1c0,0,0,0,0,0c3.3-0.1,7-3.7,7-8.2
			c0-1.9-0.6-5.1-4.5-5.1c-3.9,0-6.4,5.4-7.3,7.8l0,0l-0.1,0.2c-1.3,4.3-1.5,10.1,1,13.5C75.7,182.5,77.5,183.3,79.8,183.3z
			 M77.6,169.9c0-1.3,1.5-4.9,2.8-6.7c0.6-0.8,0.8-0.8,0.9-0.8c0,0,0.1,0,0.2,0.1c0.1,0.2,0.4,0.7,0.3,1.9
			C81.3,167.5,80,169.2,77.6,169.9z"/>
		<path id="XMLID_341_" d="M119.4,180.8c1.3,1.7,3.1,2.6,5.4,2.6c5.5,0,10.6-4.9,14.3-10c0,1-0.1,1.9-0.1,2.9
			c0.1,1.8,0.2,3.8,0.4,5.6c0,1.8,0.6,2.5,2.2,2.5h0.8c1,0,1.7-0.6,1.9-1.7c0.3-0.9,0.6-2.1,0.7-3.1c0.7-3.4,1.6-7,3.3-9.8
			c1.7-2.8,3.8-4.3,5.8-5.4c0.5-0.3,0.5-0.3,1,0.4c0,0,0,0.1,0.1,0.1c0,0.1,0.1,0.2,0.2,0.3c0.2,0.2,0.5,0.2,0.7,0.2
			c0.4,0,0.6-0.7,0.6-0.9c0-1.1-0.5-2.3-1.4-2.5c-1.2-0.1-2.1,0.3-3.1,0.9c-2.4,1.6-4.1,3.4-5.7,6.2c-0.3,0.5-0.6,1-0.8,1.5
			c-0.2,0.3-0.3,0.6-0.5,0.9c0,0-0.1,0-0.1,0.1c0,0,0,0,0,0c0.1-1.3,0.2-2.7,0.3-4c0.1-1.3,0.2-2.6,0.3-3.8c0.2-1.8,0.3-3.7,0.4-5.4
			c0.1-1.8,0.2-3.6,0.4-5.4c0.1-0.5,0-0.9-0.2-1.1c-0.2-0.2-0.4-0.3-0.7-0.3c-1.3-0.3-2.1,0.1-2.8,1.3c-0.1,0.2-0.2,0.4-0.3,0.6
			c-0.2,0.4-0.4,0.8-0.5,1.1c-0.7,2.2-1.2,4.4-1.6,6.6c-0.4,2.3-0.7,4.7-0.9,7.1c-4.1,6.2-9.1,12.9-14.5,12.3
			c-1.7-0.2-3.1-3-2.7-7.9c0,0,0.1,0,0.3,0c0.2,0,0.5,0.1,0.8,0.1c0,0,0,0,0,0c3.3-0.1,7-3.7,7-8.2c0-1.9-0.6-5.1-4.5-5.1
			c-3.9,0-6.4,5.4-7.3,7.8l0,0l-0.1,0.2C117.2,171.6,116.9,177.4,119.4,180.8z M122.6,169.9c0-1.3,1.5-4.9,2.8-6.7
			c0.6-0.8,0.8-0.8,0.9-0.8c0,0,0.1,0,0.2,0.1c0.1,0.2,0.4,0.7,0.3,1.9C126.3,167.5,125,169.2,122.6,169.9z"/>
		<path id="XMLID_344_" d="M187.5,191.7c0.4,0.2,1.3,0.5,2.1,0.5c0.4,0,0.8-0.1,1.1-0.3c0.2-0.2,0.5-0.5,0.4-1.2l0-0.1
			c-0.3-0.5-0.7-0.7-1.1-0.8l0,0c-0.2-0.1-0.5-0.3-0.8-0.4c-0.4-0.2-0.8-0.4-1.1-0.6c-2.3-2.1-3.5-4.9-4.5-7.6
			c-0.6-2.4-1.9-8.3-1.8-12.6c0-0.2,0-0.4-0.1-0.5c-0.1-0.9-0.2-1.7,0.2-2.2c4.5-3.3,8.8-9.6,11.8-14.4c4.2-6.7,10.9-22.9,8.2-31.9
			c-0.8-2.6-2.3-4.4-4.5-5.4c-5.2-2.1-9.8,3.9-11,5.8c-9.4,13.3-13,32.4-9.8,52.5C178.7,183.4,182.3,189.9,187.5,191.7z
			 M181.5,157.2c0.5-14.4,3.9-26.7,9.9-35.6c0.7-1.6,2.4-3.4,4.1-3.8c0.2,0,0.4-0.1,0.5-0.1c0.7,0,1.3,0.3,1.9,0.8
			c1.5,1.6,2,4.3,1.7,8c-1,12-10.9,30.5-18.2,36.5C181.4,161.3,181.4,159.3,181.5,157.2z"/>
		<path id="XMLID_347_" d="M198.5,152.3c-1.4,0.1-6.2,0.6-6.4,4.3c0.6,3.8,3.1,4.6,5.5,4.6c-4.6,3-6.8,10.7-5.6,15.8
			c0.8,3.5,3.1,5.5,6.3,5.5c3.2,0,5.8-1.2,7.5-3.7c3.7-5.2,2.8-14.5,1.5-18.4c0.3-0.5,1.1-0.6,2.1-0.7c0.2,0,0.5-0.1,0.7-0.1
			c2.7,0,7,1.1,7,4v0.7c-2.5,3.7-3.6,9-2.7,12.8c0.8,3.5,3.1,5.5,6.3,5.5c3.2,0,5.8-1.2,7.5-3.7c3.7-5.2,2.8-14.5,1.5-18.4
			c0.3-0.5,1.1-0.6,2.1-0.7c0.2,0,0.5-0.1,0.7-0.1c1.5,0,3.6,0.3,5.1,1.2c-1.6,10.6-2.2,19.4-1.9,27.8c0.2,1.6,0.7,2.9,1.4,4.3
			c1,1.6,2.6,2.4,4.4,2.4c0.1,0,0.2,0,0.3,0c0.3,0,0.7-0.5,0.8-0.8c0.2-0.5-0.2-0.7-0.3-0.8c-0.1,0-0.1-0.1-0.2-0.1l-0.1-0.1h-0.1
			l-0.6-0.3c-1.3-1.4-1.4-3.5-1.6-5.5l0-0.1c-0.1-2.7,0.3-5.6,0.6-8.3c0.2-1.9,0.4-3.9,0.5-5.9c0-0.1,0.1-0.1,0.1-0.2
			c0-0.1,0.1-0.2,0.1-0.2c0.4-0.1,0.6-0.5,0.8-0.9c0.1-0.2,0.2-0.4,0.3-0.5l0.3-0.5c0.5-0.9,1-1.7,1.7-2.6c0,0.1,0.1,0.2,0.1,0.3
			c0.1,0.1,0.1,0.3,0.1,0.5c0.2,4.3,2,8.1,4.6,10c1.7,1.2,3.7,1.5,5.8,0.9c1.4-0.5,2.8-1.1,4-1.9c2.2-1.6,3.3-2.6,4.9-4.4
			c2.3-2.3,3.8-5.5,5-8.4c0,0,0-0.1,0.1-0.1c0.1-0.2,0.3-0.5,0.1-0.7l0-0.1h-0.1c0,0-0.2-0.2-0.3-0.3l-0.1-0.1h-0.2
			c-0.6,0-0.9,0-1.6,0.5l-0.1,0l0,0.1c-0.7,1.8-1.5,3.3-2.3,4.2l-0.2,0.2c-2.8,3.3-5.6,6.8-9.6,8.2c-0.9,0.5-1.8,0.3-2.7-0.5
			c-1.6-1.5-2.3-4.2-2.9-6.7c-0.3-1.4-0.6-2.6-1.1-3.8c0-0.3-0.1-0.6-0.1-0.7c0.1,0,0.3,0,0.5,0c5.4-0.1,10.2-2.8,13.3-7.3
			c1.1-1.6,1.7-3.2,1.9-4.8c0-1.1-0.2-2.3-1.3-3.2c-2.5-1.7-6.4-0.9-8.5,0.9c-4.7,3.5-8.6,8.3-11.4,13.8l0-0.2
			c0.8-3.8,1.5-7.7,2.4-11.7c0.4-1.9,0.8-3.9,1.3-5.8c0.6-2.9,1.3-5.8,1.8-8.8c0.2-1,0.4-2,0.6-3c0.6-2.9,1.2-6,1.5-9
			c0-0.3,0-0.7,0-1c0-0.6,0-1.2,0-1.7c-0.2-1.1-0.7-1.9-1.4-2.2c-0.6-0.3-1.2-0.3-1.9,0c-0.4,0-0.7,0.2-0.9,0.6
			c-0.1,0.3-0.1,0.6,0,0.9c0.1,0.5,0,1-0.1,1.5c-0.6,2.5-1.2,5.1-2,7.7c-1.3,5.2-2.6,10.6-3.8,16.1c-0.7,3.4-1.3,6.7-1.8,9.8
			c-1.4-0.5-3.1-0.8-5.2-0.8c-1.3,0-2.2,0.3-3,0.6c-0.3,0.1-0.5,0.2-0.7,0.2c-0.1,0-0.4-0.6-0.7-1c-1-1.8-2.9-5.1-7.5-5h0
			c-1.4,0.1-6.2,0.6-6.4,4.3c0.1,0.6,0.2,1.1,0.4,1.5c-1.3-0.4-2.8-0.6-4.7-0.6c-1.3,0-2.2,0.3-3,0.6c-0.3,0.1-0.5,0.2-0.7,0.2
			c-0.1,0-0.4-0.6-0.7-1C205,155.5,203.1,152.1,198.5,152.3L198.5,152.3z M201.5,159.7h-1.1c-4.3,0-5.8-1.9-5.8-3.5
			c0-0.6,1.2-1.1,2.6-1.1c1.1,0,2.2,0.3,2.9,0.9c0.9,0.7,1.4,1.8,1.4,3.2V159.7z M200.1,178.3c-0.4,0.4-0.9,0.6-1.5,0.6
			c-2.6-0.1-3-2.9-3-4.6c0-5.1,2.4-11.5,5.4-11.8h1c0.4,3.4,0.5,5.6,0.5,6.9C202.6,172.6,201.7,176.8,200.1,178.3z M224.1,159.7H223
			c-4.3,0-5.8-1.9-5.8-3.5c0-0.6,1.2-1.1,2.6-1.1c1.1,0,2.2,0.3,2.9,0.9c0.9,0.7,1.4,1.8,1.4,3.2V159.7z M222.7,178.3
			c-0.4,0.4-0.9,0.6-1.5,0.6c-2.6-0.1-3-2.9-3-4.6c0-5.1,2.4-11.5,5.4-11.8h1c0.4,3.4,0.5,5.6,0.5,6.9
			C225.2,172.6,224.3,176.8,222.7,178.3z M257.9,152.6c0.3-0.1,0.4-0.1,0.5,0c0,0,0.1,0.1,0.1,0.5l0,0.4c-0.5,3.1-2.6,6.1-5.5,8.1
			c-1.3,1-2.5,1.5-3.8,1.9c-0.7,0.3-1.3,0.5-1.9,0.4c0-0.1,0-0.1,0-0.1c0.7-0.9,1.4-1.7,1.9-2.6c2.1-3,4.6-5.5,7.5-7.4
			C257,153.2,257.4,152.9,257.9,152.6z"/>
		<path id="XMLID_355_" d="M392.3,164.6L392.3,164.6l-0.1-0.1c0,0-0.2-0.2-0.3-0.3l-0.1-0.1h-0.2c-0.6,0-0.9,0-1.6,0.5l-0.1,0l0,0.1
			c-0.7,1.8-1.5,3.2-2.3,4.2l-0.2,0.2c-2.8,3.3-5.6,6.8-9.6,8.2c-0.9,0.5-1.8,0.3-2.7-0.5c-1.6-1.5-2.3-4.2-2.9-6.7
			c-0.3-1.4-0.6-2.6-1.1-3.8c0-0.3-0.1-0.6-0.1-0.7c0.1,0,0.3,0,0.5,0c5.4-0.1,10.2-2.8,13.3-7.3c1.1-1.6,1.7-3.2,1.9-4.8
			c0-1.1-0.2-2.3-1.3-3.2c-2.5-1.7-6.4-0.9-8.5,0.9c-4.7,3.5-8.6,8.3-11.4,13.9l0-0.1l0-0.1c0.8-3.8,1.5-7.7,2.4-11.6
			c0.4-1.9,0.8-3.9,1.3-5.8c0.6-2.9,1.3-5.8,1.8-8.8c0.2-1,0.4-2,0.6-3c0.6-2.9,1.2-6,1.5-9c0-0.3,0-0.7,0-1c0-0.6,0-1.2,0-1.7
			c-0.2-1.1-0.7-1.9-1.4-2.2c-0.6-0.3-1.2-0.3-1.9,0c-0.4,0-0.7,0.2-0.9,0.6c-0.1,0.3-0.1,0.6,0,0.9c0.1,0.5,0,1-0.1,1.5
			c-0.5,2.5-1.2,5.1-2,7.6c-1.3,5.2-2.7,10.6-3.8,16.2c-1.7,8.4-2.9,15.8-3.5,22.6c-3.4,6.1-8.1,12.3-14.2,11.2
			c-1-0.9-1.6-1.9-1.9-3.1c-0.4-3.8,0.1-7.7,1.5-12.8c1.7-5.5,4.3-11,6.4-11c0.5,0,0.5,1.1,0.5,1.6c0,2.2-1.4,4.5-2.7,6.6
			c-0.5,0.9-1.1,1.8-1.4,2.5l0,0.1c0,0.6,0.3,0.9,0.7,0.9c0.3,0,0.5-0.2,0.6-0.4c3-1.5,5.7-6.2,5.7-10.1c0-1.4-0.6-2.8-1.5-3.7
			c-0.6-0.6-1.4-0.9-2.3-0.9c-2.3,0.1-4.6,1.3-6.7,3.5c-2.6,2.7-4.4,6.6-5.9,10c-0.6,1.6-0.9,3.3-1.1,5c-0.2,0.4-0.5,0.8-0.7,1.1
			c-3.8,4.9-5.9,6.7-8.2,7.2h-0.3c-1.1,0-2.3-1.7-2.3-4.1l0-0.7c0.1-1.1,0.7-5.3,1.1-8.3c0.2-1.4,0.4-2.8,0.6-4.1
			c0.3-1.8,0.6-3.6,0.8-5.4v-0.3c0-0.7-0.4-1.2-1.1-1.5c-0.4-0.1-0.6-0.1-1-0.1c-1.8-0.4-2.3,1-2.8,2.2c0,0.1-0.1,0.3-0.2,0.4
			c-0.6,0.6-0.8,1.3-1,1.8c0,0.1-0.1,0.2-0.1,0.3c-0.1-0.1-0.2-0.2-0.5-0.6l-0.1-0.1c-0.9-0.6-1.6-0.9-2.1-0.9c-0.3,0-0.8,0-1.2,0.1
			c-0.9,0.2-1.5,0.6-2.2,1l-0.3,0.2l-0.1,0c-3.2,3.1-8.2,9.1-7.6,16c0,0,0,0,0,0c-0.9,0.4-1.8,0.7-2.5,0.6c-2.1,0.1-3.7-1.7-3.8-2
			c0-0.2-0.2-0.3-0.3-0.4c0,0-0.1,0-0.1-0.1c0.9-1.9,1.4-3.9,1.6-6v-1.9c0-0.9,0-1.7-0.2-2.6c-0.5-1.3-1.2-1.9-2.4-2H300
			c-1.3,0-2.5,0.5-3.6,1.6c-1.9,1.9-3.4,4-4.5,6.3l-3,7.4c-0.1,0.6-0.3,1.1-0.5,1.7c-1.6-10.6-0.9-25,1.9-38.6
			c0.5-2.3,1.1-4.6,1.8-7c0.3-1,0.5-2,0.8-3c0.3-1.3,1.1-3,2.4-4.1c0.4-0.2,0.4-0.4,0.4-0.7c0-0.5-0.3-0.8-0.5-0.9
			c-0.2-0.1-0.4-0.3-0.6-0.5c-0.2-0.2-0.4-0.4-0.7-0.5c-0.7-0.1-1.3-0.1-1.8-0.1l-0.3,0c-1.7,0.1-3.1,1.4-4,3.5l0,0
			c-0.1,0.4-0.3,0.7-0.4,1c-0.2,0.6-0.5,1.2-0.6,1.8c-4.7,17-5.8,37.4-3,57.5c0.1,0.7,0.1,1,0.2,1.3c0.1,0.3,0.1,0.7,0.2,1.3
			c0.2,0.9,0.5,1.4,1,1.6c0.3,0.1,0.7,0.1,1.1,0.1c0.5,0,1.4-0.3,1.9-0.6c0.4-0.3,0.4-0.7,0.4-1c0-0.2,0-0.4,0.1-0.6
			c0.1-0.3,0.1-0.5,0.1-0.9c0.1-1.5,0.1-2.3,0-3c0-1.2,0-1.7,0.6-4.4c0.6-2.2,1.9-4.5,3.2-6.7c0.5-0.9,1.1-1.9,1.6-2.9
			c1-2.3,2.3-4.2,3.7-5.9c0.3-0.4,0.8-0.7,1.2-1.1c0.1-0.1,0.3-0.2,0.4-0.3c0,0,0,0,0,0c0,0,0.1,0,0.2,0.1c0.1,0.4,0.1,0.8,0.1,1.3
			v0.8c0,2.1-0.3,4-0.9,5.7c-0.7,2.2-1.7,3.2-3.2,3.3c-0.8,0-1.6,0.4-2.1,1.1c-0.1,0.1-0.3,0.4-0.3,0.7c0,0.4,0.2,0.7,0.5,0.9
			c0.1,0.1,0.3,0.2,0.5,0.2c0.1,0,0.2,0.1,0.2,0.1l1,0c1.5,0,2.7-0.3,3.6-1c0.5-0.4,0.9-0.6,1.4-0.6c0.8,0,1.1,0,1.3,0.1
			c0.9,1,2.6,1.7,4.5,1.7c0.8,0,1.6-0.3,2.4-0.6c0.5,1,1.2,1.6,2.2,1.9c0.6,0.2,1.1,0.2,1.5,0.2c0.3,0,0.7,0,1.1-0.1
			c3.2-1.2,4.8-4.1,6.3-6.9c0.3-0.5,0.5-0.9,0.8-1.4c0.1-0.2,0.2-0.4,0.3-0.7l-0.2,1.9c0,2.2,0.3,4.1,0.9,5.9
			c0.9,2.5,2.6,3.8,4.8,3.8c4.7,0,8.4-3.4,11-7c0.2,1.6,0.5,3.1,1,4.4c1.6,4.5,4.5,6.3,6.5,6.5c0.3,0,0.7,0,1,0
			c5.1,0,10-3.9,13.2-8.4c-0.2,4.1-0.3,8-0.1,11.7c0.2,1.6,0.7,2.9,1.4,4.3c1,1.6,2.6,2.4,4.4,2.4c0.1,0,0.2,0,0.3,0
			c0.3,0,0.7-0.5,0.8-0.8c0.2-0.5-0.2-0.7-0.3-0.8c-0.1,0-0.1-0.1-0.2-0.1l-0.1-0.1h-0.1l-0.6-0.3c-1.3-1.4-1.4-3.5-1.6-5.5l0-0.1
			c-0.1-2.7,0.3-5.5,0.6-8.3c0.2-1.9,0.4-3.9,0.5-5.9c0-0.1,0.1-0.1,0.1-0.2c0-0.1,0.1-0.2,0.1-0.2c0.4-0.1,0.6-0.5,0.8-0.9
			c0.1-0.2,0.2-0.4,0.3-0.5l0.3-0.5c0.5-0.9,1-1.7,1.7-2.6c0,0.1,0.1,0.2,0.1,0.3c0.1,0.1,0.1,0.3,0.1,0.5c0.2,4.3,2,8.1,4.6,10
			c1.7,1.2,3.7,1.5,5.8,0.9c1.4-0.5,2.8-1.1,4-1.9c2.2-1.6,3.3-2.6,4.9-4.4c2.3-2.3,3.8-5.5,5-8.4c0,0,0-0.1,0.1-0.1
			C392.4,165.1,392.5,164.9,392.3,164.6z M381.2,152.6c0.3-0.1,0.4-0.1,0.5,0c0,0,0.1,0.1,0.1,0.5l0,0.4c-0.5,3.1-2.6,6.1-5.5,8.1
			c-1.3,1-2.5,1.5-3.8,1.9c-0.8,0.3-1.3,0.5-1.9,0.4c0-0.1,0-0.1,0-0.2c0.7-0.9,1.4-1.7,1.9-2.6c2.1-3,4.6-5.5,7.5-7.4
			C380.2,153.2,380.7,152.9,381.2,152.6z M321.2,162.1c0,0.2-0.1,0.3-0.1,0.4l-0.4,1.1c-1.7,4.3-3.6,7.6-5.8,10
			c-0.2,0.2-0.4,0.5-0.6,0.7c-0.2,0.2-0.4,0.4-0.6,0.7c-0.2,0.2-0.3,0.3-0.4,0.3h0l-0.2-0.4c0.1-2.8,1-5.9,2.6-9.1
			c0.8-1.4,1.7-2.9,3.1-4.7l1-0.8h0.2c0.5,0.4,0.8,0.9,1,1.8l0,0.1l0.1,0.1C321.1,162,321.2,162,321.2,162.1z"/>
		<path id="XMLID_357_" d="M33.3,336.3c-2.7,0-3.5,3.2-3.9,5.1l0,0.1c-0.8,3.3-1.6,7.2-1.3,10.7c0,1,0,1.7,0.1,2.5l0,0.7
			c0.1,0.7,0.5,1.3,0.9,1.6c0.6,0.4,1.7,0.7,2.7,0.7c0.8,0,1.5-0.1,2-0.4c0.4-0.3,0.7-0.6,0.7-0.8c0-0.2-0.1-0.4-0.4-0.5
			c-0.8-0.7-1-1.1-1-1.6c-0.1-3.2,0.3-5.8,0.8-8.8c0.4-2.1,0.7-4.4,0.9-7.1c0.1-0.6-0.1-1.2-0.4-1.6C34,336.5,33.7,336.3,33.3,336.3
			z"/>
		<path id="XMLID_358_" d="M31.5,332c0.5,0.4,1.1,0.4,1.5,0.4c0.7,0,1.6-0.4,1.6-1.1c0-0.1,0-0.2,0-0.4c0-0.7,0-1.8-0.4-2.5
			c-0.4-0.7-1.1-1-1.8-1c-1.1,0.1-2.1,0.8-2.6,2l0,0.1C29.8,331.5,30.7,332,31.5,332z"/>
		<path id="XMLID_359_" d="M43.6,319.9c-3.5,13.1-6.5,41.4,1.7,50.6c1.2,1.6,2.8,2.4,4.9,2.4c0.4,0,0.9,0,1.3-0.1
			c1.3-0.3,2.4-1.2,2.8-2.7c0.1-0.3,0.1-0.5,0.1-0.7c0-0.5-0.2-1.2-1.3-1.3h-0.4c-0.6,0-1.3,0.2-1.5,0.9c-0.1,0.1-0.1,0.2-0.2,0.3
			c-0.1,0.1-0.2,0.2-0.2,0.4c-0.1,0.1-0.2,0.1-0.2,0.1c0,0,0-0.1-0.1-0.1l0-0.1c-0.2-0.2-0.3-0.3-0.5-0.4c-0.2-0.2-0.5-0.3-0.5-0.5
			l0-0.1c-6.7-10.1-2-34.3,0.8-48.7l0.3-1.6c0.1-0.9,0.1-0.9,1-0.9h3.7c0.6,0,1.3,0.1,2,0.2c0.3,0,0.5,0.1,0.8,0.1
			c0.2,0,0.5,0,0.8,0.1c0.2,0,0.5,0.1,0.7,0.1h0.3v-0.4c0-0.5-0.5-1.4-1.1-1.8c-0.4-0.3-0.6-0.4-1-0.5c-1.7-0.5-3-0.7-4.7-0.7
			c-1.6,0-1.7-0.1-1.7-0.5c0-0.3,0.1-0.9,0.4-1.8c0.2-1.2,0.4-2.3,0.7-3.6c0.3-1.3,0.6-2.7,0.8-4c0.1-0.3,0.1-0.7,0.1-0.9
			c0-1.3-0.7-2.1-1.8-2.1c-0.2,0-0.3,0-0.4,0.1c-0.1,0-0.2,0.1-0.3,0.1c-0.3,0-0.7,0.3-1,0.7c-0.3,0.3-0.5,0.7-0.7,1
			c-0.2,0.3-0.4,0.7-0.7,1c-1.1,2.3-1.8,4.9-2.5,7.4c-0.2,0.9-0.5,1.8-0.9,3l-2.4,0.3c-2.9,0.4-5.5,1.2-8.1,2.1
			c-0.2,0.1-0.4,0.2-0.6,0.3c-0.1,0.1-0.3,0.2-0.5,0.3l-0.1,0.1v0.2c0,0,0,0,0,0.1c0,0.1-0.1,0.2-0.1,0.4c0,0.3,0.2,0.6,0.4,0.8
			c0.4,0.3,0.7,0.3,0.9,0.3h0.8c0.7,0,1.8-0.1,2.7-0.5c0.8-0.3,1.7-0.5,2.7-0.7c0.6-0.1,1.1-0.2,1.6-0.4c0.5-0.1,1.3-0.2,1.9-0.2
			c0.1,0,0.1,0,0.1,0c0,0.1,0,0.3,0,0.4c0,0.1-0.1,0.3-0.1,0.4C43.8,319,43.6,319.4,43.6,319.9z"/>
		<path id="XMLID_362_" d="M118.1,286.9c-1.1-1.2-2.8-1.7-5.1-1.2c-15.3,4.6-23.3,38.9-23.3,56.1c0,0.8-3.2,4.6-4.5,6.3
			c-0.4,0.5-0.7,0.8-0.8,1c-0.7,0.5-1.3,1.2-1.9,1.8c-0.6,0.6-1.3,1.2-1.9,1.7l-0.4,0.2c-0.5,0.4-0.9,0.6-1.5,0.8
			c-0.4,0.2-0.5,0.2-0.5,0.2c0,0-0.1-0.1-0.2-0.6c-0.2-0.6-0.2-1.2-0.2-2c0-1,0.1-1.9,0.2-2.8c0.1-0.5,0.1-1,0.2-1.6
			c0.2-1.9,0.9-4,1.9-5.8c0.3-0.6,0.7-1.3,1.2-1.9c0.2-0.3,0.3-0.4,0.4-0.5c0.1,0,0.3,0.1,0.5,0.3l0.1,0c0.5,0.2,0.7,0.4,1,0.8
			c0.1,0.1,0.2,0.3,0.3,0.4c0.1,0.1,0.2,0.2,0.2,0.2c0.4,0.4,0.8,0.8,1.4,1c0.2,0.1,0.3,0.2,0.5,0.1c0.2-0.1,0.3-0.3,0.3-0.6l0-0.1
			c-0.1-0.4-0.2-0.8-0.3-1.1c-0.3-1.3-0.6-2.5-2.3-3.2c-1.9-1-5.1-0.8-6.7,1.3c-1.8,2.1-3,4.4-4,7.7c-1.1,3.8-1,7,0.2,9
			c0.8,1.3,1.9,2.1,3.5,2.4c1.5,0.1,3.5,0.1,5.2-1.1l0.2-0.1c0.4-0.2,1-0.5,1.4-0.9c2.1-1.6,3.7-3.9,5.2-6l0-0.1
			c0.2-0.1,0.4-0.5,0.8-1.2c0.2-0.3,0.4-0.7,0.6-0.9c-0.3,8.9,3.4,26.9,7.5,29c0.9,0.7,2.2,1,3.4,1c0.5,0,0.9-0.1,1.4-0.2
			c1.2-0.3,2-0.9,2.4-1.8c1-1.7,1.4-3.5,1.1-5.7v-0.6l-0.1-0.1c-0.5-0.3-1-0.2-1.3-0.2c-0.1,0-0.1,0-0.2,0c-0.5,0.1-0.6,0.4-0.8,0.7
			c0,0.1-0.1,0.2-0.1,0.3l0,0.1c-0.1,1.5-0.4,2.9-1.5,4.2c-0.1,0.1-0.1,0.2-0.2,0.3c-0.1-0.1-0.2-0.2-0.3-0.3
			c-1-1.1-1.7-2.7-2.2-3.9c-2.2-5.4-3.3-11.2-3.5-17.8c0-1.4,0-2.7,0.1-4c0-1.1,0.1-2.2,0.1-3.3l0-0.2c0.2-1,0.2-2,0.3-3
			c0-0.5,0.1-1,0.1-1.5c0-0.9,0.5-1.7,1-2.6l1.3-1.9c6.7-9.5,13.6-19.2,17.8-29.8C118.5,298.8,120.9,290.2,118.1,286.9z
			 M116.4,290.5v0.6c-0.3,9.2-7,23.3-19.8,41.8l0.1-0.7c1.9-10.4,3.8-21.1,8-30.5c2-4.8,5.5-11.1,10.2-13.6c0.2-0.1,0.4-0.1,0.5-0.1
			c0.1,0,0.1,0,0.2,0c0.1,0.1,0.2,0.3,0.4,0.8c0,0.1,0.1,0.2,0.1,0.3C116.3,289.5,116.4,289.9,116.4,290.5z"/>
		<path id="XMLID_363_" d="M108.5,332.3c0.7,0,1.6-0.4,1.6-1.1c0-0.1,0-0.2,0-0.4c0-0.7,0-1.8-0.4-2.5c-0.4-0.7-1.1-1-1.8-1
			c-1.1,0.1-2.1,0.8-2.6,2l0,0.1c0,2,0.9,2.5,1.7,2.5C107.5,332.3,108,332.3,108.5,332.3z"/>
		<path id="XMLID_364_" d="M110.2,338.4c0.1-0.6-0.1-1.2-0.4-1.6c-0.3-0.3-0.6-0.5-1.1-0.5c-2.7,0-3.5,3.2-3.9,5.1l0,0.1
			c-0.8,3.3-1.6,7.2-1.3,10.7c0,1,0,1.7,0.1,2.5l0,0.7c0.1,0.7,0.5,1.3,0.9,1.6c0.6,0.4,1.7,0.7,2.7,0.7c0.8,0,1.5-0.1,2-0.4
			c0.4-0.3,0.7-0.6,0.7-0.8c0-0.2-0.1-0.4-0.4-0.5c-0.8-0.7-1-1.1-1-1.6c-0.1-3.2,0.3-5.8,0.8-8.8
			C109.6,343.3,110,341.1,110.2,338.4z"/>
		<path id="XMLID_367_" d="M140.1,370.5c1.2,1.6,2.8,2.4,4.9,2.4c0.4,0,0.9,0,1.3-0.1c1.3-0.3,2.4-1.2,2.8-2.7
			c0.1-0.3,0.1-0.5,0.1-0.7c0-0.5-0.2-1.2-1.3-1.3h-0.4c-0.6,0-1.3,0.2-1.5,0.9c-0.1,0.1-0.1,0.2-0.2,0.3c-0.1,0.1-0.2,0.2-0.2,0.4
			c-0.1,0.1-0.2,0.1-0.2,0.1c0,0,0-0.1-0.1-0.1l0-0.1c-0.2-0.2-0.3-0.3-0.5-0.4c-0.2-0.2-0.5-0.3-0.5-0.5l0-0.1
			c-6.7-10.1-2-34.3,0.8-48.7l0.3-1.6c0.1-0.9,0.1-0.9,1-0.9h3.7c0.6,0,1.3,0.1,2,0.2c0.3,0,0.5,0.1,0.8,0.1c0.2,0,0.5,0,0.8,0.1
			c0.2,0,0.5,0.1,0.7,0.1h0.3v-0.4c0-0.5-0.5-1.4-1.1-1.8c-0.4-0.3-0.6-0.4-1-0.5c-1.7-0.5-3-0.7-4.7-0.7c-1.6,0-1.7-0.1-1.7-0.5
			c0-0.3,0.1-0.9,0.4-1.8c0.2-1.1,0.4-2.3,0.7-3.6c0.3-1.3,0.6-2.7,0.8-4c0.1-0.3,0.1-0.7,0.1-0.9c0-1.3-0.7-2.1-1.8-2.1
			c-0.2,0-0.3,0-0.4,0.1c-0.1,0-0.2,0.1-0.3,0.1c-0.3,0-0.7,0.3-1,0.7c-0.3,0.3-0.5,0.7-0.7,1c-0.2,0.3-0.4,0.7-0.7,1
			c-1.1,2.3-1.8,4.9-2.5,7.4c-0.2,0.9-0.5,1.8-0.9,3l-2.4,0.3c-2.9,0.4-5.5,1.2-8.1,2.1c-0.2,0.1-0.4,0.2-0.6,0.3
			c-0.1,0.1-0.3,0.2-0.5,0.3l-0.1,0.1v0.2c0,0,0,0,0,0.1c0,0.1-0.1,0.2-0.1,0.4c0,0.3,0.2,0.6,0.4,0.8c0.4,0.3,0.7,0.3,0.9,0.3h0.8
			c0.7,0,1.8-0.1,2.7-0.5c0.8-0.3,1.7-0.5,2.7-0.7c0.6-0.1,1.1-0.2,1.6-0.4c0.5-0.1,1.3-0.2,1.9-0.2c0.1,0,0.1,0,0.1,0
			c0,0.1,0,0.3,0,0.4c0,0.1-0.1,0.3-0.1,0.4c-0.1,0.4-0.3,0.9-0.3,1.3c-1.5,5.5-2.8,13.8-3.3,22.1c-5.8,6.5-9,8.7-10.2,9.4
			c-0.9-1.7-1.9-3.2-2.6-4.2c-0.4-0.5-0.7-1-0.9-1.4c-0.5-0.7-0.8-1.6-0.8-2.6c0-2.8,1.3-6.3,4.1-7.5c0.9-0.2,2.1,0,3.4,0.5
			c1,0.3,1.9,0.6,2.4,1.6c0.2,0.4,0.6,0.4,0.7,0.4c0.2,0,0.3-0.1,0.5-0.3c0.1-0.1,0.2-0.2,0.2-0.3c0.1-0.1,0.2-0.2,0.3-0.3l0.1,0
			l0-0.1c0-0.1,0.1-0.2,0.1-0.3c0.1-0.2,0.2-0.4,0.2-0.7c0-0.5-0.2-1.1-0.7-1.5l-1-0.6c-1.8-1.1-3.9-1.7-5.8-1.7
			c-1.3,0-2.5,0.3-3.6,0.6c-2.8,0.8-4.9,2.9-6.4,6.5c-1.4,3.3-0.6,7,2.6,11.1c0.8,1.2,1.7,2.4,2.4,3.7c0.1,0.2,0.1,0.4,0.1,0.6
			c0,0.2,0,0.4-0.3,0.7c-0.2,0.2-0.3,0.4-0.5,0.6c-0.5,0.7-1,1.3-1.3,1.9c-1.1,1.7-2.1,3.3-2.7,5.2l-0.1,0.3
			c-0.2,0.6-0.4,1.2-0.4,1.9v0.6c0,1.3,0.7,2.1,2.1,2.4c0.3,0.1,0.6,0.1,0.8,0.1c1.7,0,3.1-0.5,4.4-1.5c1.4-1.1,2.4-2.3,3.2-3.6
			c0.9-1.6,1.4-3.5,1.4-5.3c0-1.5-0.3-2.8-0.6-3.9l-0.4-1.1c2-1.7,6.3-5.4,9.2-8.1C134.6,355.6,135.8,365.6,140.1,370.5z
			 M118.3,365.5v-0.6c0-0.2,0.1-0.7,0.2-1.2c0.3-2,1.2-3.9,2.6-5.7l0,0c0,0,0,0.1,0,0.1l0,0.1c0.1,0.3,0.1,0.8,0.1,1.2
			C121.1,361.9,120.1,364,118.3,365.5c0,0.1,0,0.1,0,0.1C118.3,365.6,118.3,365.5,118.3,365.5z"/>
		<path id="XMLID_368_" d="M153.8,336.9c0.1-0.7,0.1-1.5,0.2-2.2c0.1-0.8,0.2-1.7,0.3-2.6c0-0.4,0-0.8-0.4-1.2
			c-0.2-0.3-0.4-0.5-0.7-0.5c-0.3,0-0.6,0-0.9,0.2c-0.5,0.3-1.2,0.7-1.6,1.4l0,0c-3.7,8.5-3.6,18.2-3,26.7c0,0.2,0.1,0.5,0.1,0.7
			c0.1,0.5,0.1,1,0.3,1.5c0.3,1,1,1.6,1.8,1.7c0.5,0,1.2,0,1.8-0.1c1,0,1.2-0.6,1.3-1.3c0-0.1,0-0.2,0.1-0.2c0-0.1,0.1-0.2,0.1-0.2
			c0.9-5.7,2.5-12.9,7.1-18.5c0.1,0,0.3-0.2,0.3-0.2c0.5-0.7,1-1,1.6-1.4l0.1,0c0,0,0,0,0.1,0.1c0.2,0.4,0.5,0.7,0.6,1.1
			c0.2,0.8,0.5,1.7,0.8,2.6c0.2,0.6,0.5,0.9,1.2,0.9h0.5c0.4,0,0.7-0.1,0.9-0.4c0.1-0.2,0.2-0.5,0.1-1c-0.2-1.3-0.5-2.7-1-3.9
			c-0.4-0.6-0.9-1-1.3-1.3c-1.6-0.6-3.2-0.3-4.5,1c-2.2,2.2-4,4.9-5.5,8c-0.1,0.3-0.3,0.6-0.4,1c-0.2,0.3-0.3,0.7-0.4,1l-0.3,0.6
			c-0.1-2.4,0.2-5.3,0.5-8.2C153.6,340.4,153.7,338.6,153.8,336.9z"/>
		<path id="XMLID_371_" d="M196.5,364.5c1.1,1.4,3,2.7,5.8,2.7c1.3,0,2.8-0.3,4.6-1c5.8-3.3,10.7-8.4,14.6-15.3
			c0.3,8.2,1.7,15.6,5.2,19.5c1.2,1.6,2.8,2.4,4.9,2.4c0.4,0,0.9,0,1.3-0.1c1.3-0.3,2.4-1.2,2.8-2.7c0.1-0.3,0.1-0.5,0.1-0.7
			c0-0.5-0.2-1.2-1.3-1.3h-0.4c-0.6,0-1.3,0.2-1.5,0.9c-0.1,0.1-0.1,0.2-0.2,0.3c-0.1,0.1-0.2,0.2-0.2,0.4c-0.1,0.1-0.2,0.1-0.2,0.1
			c0,0,0-0.1-0.1-0.1l0-0.1c-0.2-0.2-0.3-0.3-0.5-0.4c-0.2-0.2-0.5-0.3-0.5-0.5l0-0.1c-6.7-10.1-2-34.3,0.8-48.7l0.3-1.6
			c0.1-0.9,0.1-0.9,1-0.9h3.7c0.6,0,1.3,0.1,2,0.2c0.3,0,0.5,0.1,0.8,0.1c0.2,0,0.5,0,0.8,0.1c0.2,0,0.5,0.1,0.7,0.1h0.3v-0.4
			c0-0.5-0.5-1.4-1.1-1.8c-0.4-0.3-0.6-0.4-1-0.5c-1.7-0.5-3-0.7-4.7-0.7c-1.6,0-1.7-0.1-1.7-0.5c0-0.3,0.1-0.9,0.4-1.8
			c0.2-1.2,0.4-2.3,0.7-3.6c0.3-1.3,0.6-2.7,0.8-4c0.1-0.3,0.1-0.7,0.1-0.9c0-1.3-0.7-2.1-1.8-2.1c-0.2,0-0.3,0-0.4,0.1
			c-0.1,0-0.2,0.1-0.3,0.1c-0.3,0-0.7,0.3-1,0.7c-0.3,0.3-0.5,0.7-0.7,1c-0.2,0.3-0.4,0.7-0.7,1c-1.1,2.3-1.8,4.9-2.5,7.4
			c-0.2,0.9-0.5,1.8-0.9,3l-2.4,0.3c-2.9,0.4-5.5,1.2-8.1,2.1c-0.2,0.1-0.4,0.2-0.6,0.3c-0.1,0.1-0.3,0.2-0.5,0.3l-0.1,0.1v0.2
			c0,0,0,0,0,0.1c0,0.1-0.1,0.2-0.1,0.4c0,0.3,0.2,0.6,0.4,0.8c0.4,0.3,0.7,0.3,0.9,0.3h0.8c0.7,0,1.8-0.1,2.7-0.5
			c0.8-0.3,1.7-0.5,2.7-0.7c0.6-0.1,1.1-0.2,1.6-0.4c0.5-0.1,1.3-0.2,1.9-0.2c0.1,0,0.1,0,0.1,0c0,0.1,0,0.3,0,0.4
			c0,0.1-0.1,0.3-0.1,0.4c-0.1,0.4-0.3,0.9-0.3,1.3c-1.6,6.2-3.2,15.8-3.5,25.1c-0.6,1.3-1.2,2.5-1.9,3.6
			c-4.1,7.1-10.9,14.4-15.1,14.5c-2.1-0.3-3.5-1.7-4.3-4c-2-6,1.2-17.5,6.1-22.5c0.2-0.2,0.5-0.4,0.7-0.6c0.2-0.1,0.4-0.1,0.5,0.1
			c1.5,1.7,2,4.1,2.4,6.5c0.1,0.7,0.3,1.4,0.4,2.2c0.2,0.5,0.4,0.9,0.7,0.9c0.3,0.1,0.7-0.1,1.1-0.5c1.1-0.9,1.8-2.2,2-3.7
			c0.2-2.6,0.2-8.7-5.3-10.2c-4.1-0.9-8,1.3-11,6.2c-1.7,2.7-2.9,6.2-3.7,9.7c-0.4,0.9-0.9,1.8-1.4,2.8c-1.3,2.5-2.4,4.5-4.5,6.6
			c-0.3,0.3-0.6,0.6-0.9,0.9c-0.4,0.4-0.8,0.8-1.3,1.1c-0.6,0.4-0.8,0.5-0.9,0.5c-0.1,0-0.2-0.3-0.3-0.7l-0.1-0.6
			c-0.2-1.3-0.4-2.5-0.4-3.7c-0.2-7.2,0.4-14.2,1.9-20.9c0.1-0.6,0.2-1.6,0.2-2.3c0-1-0.7-1.7-1.7-1.7c-0.6,0-1,0.2-1.4,0.4
			c-0.1,0.1-0.3,0.1-0.5,0.2c-0.5,0.2-0.7,0.8-0.9,1.6c-0.2,0.6-0.4,1.3-0.8,2.1h-0.7c-2.1,0-3.8,0.4-5.4,1.1
			c-3.1,1.6-5.1,4.7-6.5,7.2c-1.3,2.5-2.2,5.1-2.7,7.8c-0.2,0.9-0.3,2-0.1,3.2c0,1.9,0.8,3.3,2.2,3.9c0.9,0.3,1.7,0.4,2.4,0.4
			c1.2,0.2,2.4-0.1,3.5-1c1.5-1.5,2.8-3.4,3.7-5.4c0.7-1.4,1.5-2.9,2.2-4.4c-0.2,2.1-0.1,4,0,6.1c0,0.5,0,1,0.1,1.6
			c0.3,4.9,1.9,7.6,4.4,7.9c0.2,0,0.4,0,0.6,0c1.8,0,3.1-1,4.3-2.1c1.7-1.9,3-3.9,4.2-5.9C193.5,358.2,194.4,362,196.5,364.5z
			 M180.4,336.6c-0.2,1.3-0.7,2.4-1.2,3.6c-0.1,0.2-0.2,0.5-0.3,0.7l0,0.1c-1.6,4.1-3.2,8.4-6.6,11c-0.3,0.1-0.7,0.1-1.1-0.1
			c-0.2-0.2-0.2-0.3-0.1-0.3l0.1-0.1l0-0.1c0.9-4.1,2.5-7.4,4.2-10.4c0.8-1.8,2.4-3.4,4.5-4.3C180,336.6,180.2,336.6,180.4,336.6z"
			/>
		<path id="XMLID_374_" d="M245.3,353.3c3.2-2.6,12.2-10.7,12.2-11c0-0.1,0.1-0.2,0.2-0.4c0.3-0.6,0.8-1.5,0.8-2.1
			c0-0.4-0.5-0.6-0.7-0.6c-0.5,0-1,0.5-2.7,2.4c-6.1,6.8-9.4,9.2-10.6,9.8c-0.9-1.7-1.9-3.2-2.6-4.2c-0.4-0.5-0.7-1-0.9-1.4
			c-0.5-0.7-0.8-1.6-0.8-2.6c0-2.8,1.3-6.3,4.1-7.5c0.9-0.2,2.1,0,3.4,0.5c1,0.3,1.9,0.6,2.4,1.6c0.2,0.4,0.6,0.4,0.7,0.4
			c0.2,0,0.3-0.1,0.5-0.3c0.1-0.1,0.2-0.2,0.2-0.3c0.1-0.1,0.2-0.2,0.3-0.3l0.1,0l0-0.1c0-0.1,0.1-0.2,0.1-0.3
			c0.1-0.2,0.2-0.4,0.2-0.7c0-0.5-0.2-1.1-0.7-1.5l-1-0.6c-1.8-1.1-3.9-1.7-5.8-1.7c-1.3,0-2.5,0.3-3.6,0.6
			c-2.8,0.8-4.9,2.9-6.4,6.5c-1.4,3.3-0.6,7,2.6,11.1c0.8,1.2,1.7,2.4,2.4,3.7c0.1,0.2,0.1,0.4,0.1,0.6c0,0.2,0,0.4-0.3,0.7
			c-0.2,0.2-0.3,0.4-0.5,0.6c-0.5,0.7-1,1.3-1.3,1.9c-1.1,1.7-2.1,3.3-2.7,5.2l-0.1,0.3c-0.2,0.6-0.4,1.2-0.4,1.9v0.6
			c0,1.3,0.7,2.1,2.1,2.4c0.3,0.1,0.6,0.1,0.8,0.1c1.7,0,3.1-0.5,4.4-1.5c1.4-1.1,2.4-2.3,3.2-3.6c0.9-1.6,1.4-3.5,1.4-5.3
			c0-1.5-0.3-2.8-0.6-3.9L245.3,353.3z M237.9,365.5v-0.6c0-0.2,0.1-0.7,0.2-1.2c0.3-2,1.2-3.9,2.6-5.7l0,0c0,0,0,0.1,0,0.1l0,0.1
			c0.1,0.3,0.1,0.8,0.1,1.2C240.7,361.9,239.7,364,237.9,365.5c0,0.1,0,0.1,0,0.1C237.9,365.6,237.9,365.5,237.9,365.5z"/>
		<path id="XMLID_377_" d="M283.2,306.2c-2.7,7.1-5,15-6.9,24.3c-0.7,3.1-1.4,6.2-2,9.2c-0.4,2-0.8,4-1.3,6c-1.6,9-1.3,9.8-1.1,10.7
			c0.1,0.4,0.3,0.8,0,2.8l0,0c-0.5,4.9-0.6,10-0.7,14.9l0.1,1.1c0.2,1.7,0.4,3.4,0.7,5.1c0.5,2.8,1.3,5.7,2.4,8.4
			c0.7,1.3,1.5,2.7,2.6,3.9c0.8,0.9,1.8,1.5,3.1,1.8c0.6,0,1.1,0.1,1.6,0.1c2.2,0,3.6-0.6,5.1-3.8l0-0.1c0-0.2,0-0.6,0.2-0.8
			l0.1-0.1c1.3-3.9,1.6-8.2,0.9-12.5c-0.5-3.2-1.6-6.4-3.3-9.8c-1.2-2.9-2.4-5.8-3.5-8.6l-0.1-0.2c-0.2-0.4-0.4-0.6-0.6-0.8
			c-0.3-0.3-0.5-0.6-0.4-1.2c1-0.3,2.1-0.5,3.1-0.5c3.5-0.4,6.9-1.1,10.2-2.2c0.9-0.3,1.8-0.7,2.7-1.2c0,2.1,0.1,4.2,0.3,6.2
			c0,0.2,0.1,0.5,0.1,0.7c0.1,0.5,0.1,1,0.3,1.5c0.3,1,1,1.6,1.8,1.7c0.5,0,1.2,0,1.8-0.1c1,0,1.2-0.6,1.3-1.3c0-0.1,0-0.2,0.1-0.2
			c0-0.1,0.1-0.2,0.1-0.2c0.9-5.7,2.5-12.9,7.1-18.5c0.1,0,0.3-0.2,0.3-0.2c0.5-0.7,1-1,1.6-1.4l0.1,0c0,0,0,0,0.1,0.1
			c0.2,0.4,0.5,0.7,0.6,1.1c0.2,0.8,0.5,1.7,0.8,2.6c0.2,0.6,0.5,0.9,1.2,0.9h0.5c0.4,0,0.7-0.1,0.9-0.4c0.1-0.2,0.2-0.5,0.1-1
			c-0.2-1.3-0.5-2.7-1-3.9c-0.4-0.6-0.9-1-1.3-1.3c-1.6-0.6-3.2-0.3-4.5,1c-2.2,2.2-4,4.9-5.5,8c-0.1,0.3-0.3,0.6-0.4,1
			c-0.2,0.3-0.3,0.7-0.4,1l-0.3,0.6c-0.1-2.4,0.2-5.3,0.5-8.2c0.2-1.8,0.3-3.6,0.4-5.2c0.1-0.7,0.1-1.5,0.2-2.2
			c0.1-0.8,0.2-1.7,0.3-2.6c0-0.4,0-0.8-0.4-1.2c-0.2-0.3-0.4-0.5-0.7-0.5c-0.3,0-0.6,0-0.9,0.2c-0.5,0.3-1.2,0.7-1.6,1.4l0,0
			c-2.2,5.1-3.1,10.6-3.3,16c-0.2,0.1-0.3,0.3-0.5,0.5c-0.9,1.8-2.6,2.4-4.2,2.9c-3.4,1.2-6.9,1.6-10.2,1.9c-0.9,0.2-1.5,0.2-1.8,0
			c-0.3-0.3-0.2-1.1-0.1-2.2l0-6.4c0.1-1.2,0.5-2.3,1.4-3.6c3.1-4.5,6.3-9.1,9.4-13.6c4.2-6.6,7.8-13.3,10.6-19.9
			c1.4-3.5,2.9-7.6,3.5-12.2c0.4-2.2,0.6-4.5,0-6.8c-0.5-2.3-1.5-3.3-3.5-3.6l-1.8,0c-1.6,0.2-3.2,1.1-4.7,2.5
			c-1.9,1.5-3.3,3.6-4.8,5.8C286.6,297.5,284.6,302.4,283.2,306.2z M278.3,361.6c0.5,1,1,2,1.5,3c1.3,2.8,2.7,5.6,3.7,8.5
			c1.8,4.3,2.1,9.1,0.8,13.9c-0.3,1.7-0.8,3.1-1.7,4.1c-0.2,0.4-0.5,0.7-0.7,0.7c-0.2,0-0.5-0.2-0.8-0.6c-0.7-1.1-1.2-2.2-1.7-3.2
			c-1-2.5-1.4-5.1-1.7-8.2l-0.2-3.6c-0.3-3.5,0-6.9,0.2-10.2c0.1-1,0.1-1.9,0.2-2.9l0.2-1.7c0,0,0,0,0,0c0,0,0,0,0.1,0.1l0,0
			c0,0,0,0,0,0L278.3,361.6z M280.8,336.5l2.7-12.2c1.4-5.8,3.3-13.3,6.4-20.5c1.6-4.3,3.5-8,5.5-11.1c0.7-1.1,1.5-2.1,2.2-3
			c0.2-0.3,0.4-0.5,0.6-0.8c0.5-0.5,0.9-0.9,1.6-1.3c0.1-0.1,0.1-0.1,0.2,0c0.1,0,0.3,0.1,0.4,0.3l0.1,0.4c0.2,0.6,0.4,1.1,0.5,1.8
			l0,0c0.1,0.3,0.1,0.6,0.1,0.9c0,0.3,0.1,0.6,0.1,0.9c0.1,2.4-0.3,4.8-0.8,7.2c-0.9,4.4-2.6,8.4-4.6,12.9
			c-3.3,7.3-7.5,13.9-11.2,19.5c-1.2,1.8-2.4,3.6-3.6,5.3l0,0l0,0C280.9,336.6,280.9,336.6,280.8,336.5
			C280.8,336.5,280.8,336.5,280.8,336.5z"/>
		<path id="XMLID_381_" d="M379.9,351.6c-0.4-0.2-1-0.3-1.6-0.2c-0.5,0.1-0.8,0.4-1,0.8c-0.2,0.5-0.6,1-0.8,1.2c-0.1,0-0.3,0-0.5,0
			c0-0.2-0.2-0.5-0.3-0.7c-0.1-0.1-0.1-0.3-0.2-0.4c-0.6-2.9-0.7-6.1-0.9-9.2c-0.1-1.5-0.1-3.1-0.2-4.7c-0.1-0.6-0.2-1.2-0.3-1.8
			c-0.1-0.6-0.2-1.2-0.3-1.9c-0.4-1.1-1.2-1.7-2.4-1.8c-1.1-0.1-1.8,0.2-2.5,1.2c-0.4,0.5-0.7,1-1,1.6c-1,1.7-1.9,3.4-2.9,5.1
			c-0.6,1.1-1.2,2.3-1.9,3.4c-0.1,0.1-0.2,0.3-0.3,0.5c-0.1,0.2-0.2,0.3-0.3,0.5c-0.2-1.2-0.2-2.6-0.2-4.1c0-2.2,0-4.6-0.6-6.6
			c-0.2-0.7-0.6-1.5-1.6-1.6c-1.7-0.2-2.6-0.2-3.9,1c-2.4,3.6-3.8,7.4-4.9,10.8l-0.4,1.1c-1.3,3.9-2.5,7.6-4.6,11
			c0-0.1-0.1-0.2-0.1-0.3c0-0.1-0.1-0.3-0.1-0.4c-1.7-7.6-0.7-14.3,0.2-21.4c0.4-2.6,0.7-5.3,1-8.1c0.1-0.9,0.1-1.7,0.1-2.4
			c0-0.8-0.6-1-1.1-1.1c-1-0.4-2.1-0.2-2.5,0.5c-0.1,0.2-0.2,0.4-0.4,0.6c-0.3,0.4-0.6,0.8-0.7,1.3v0c-1.9,5.6-3.2,10.9-3.6,16.2
			c-1.2,0.3-2.6,0.5-4,0.5c-0.2,0-0.3,0-0.5,0c-1.4,0-2.6,0-2.7-0.8c0-3.5-3.6-8.8-8.3-8.8c-2.9,0-6,1.5-6,4.8
			c0,1.5,0.5,1.9,0.9,2.2c0.2,0.1,0.3,0.2,0.3,0.4c-0.3,0.6-0.6,1.2-0.9,1.8c-1.6,3.2-3.1,5.9-3.1,10.2c0,4.2,2,9.1,7.7,9.1h0.4
			c5.4,0,9.8-8.2,9.8-15v-1.2c0-1.1,0.2-1.1,0.5-1.1c1.3,0.1,2.8,0.2,3.9,0.2c0,0,0,0,0,0c0.6,0,1.3-0.1,2-0.3
			c-0.2,5.4,0.6,11,2.7,17.3c0.5,0.8,1.7,1.4,3.1,1.6c0.3,0,0.6,0.1,0.9,0.1c1.3,0,2.4-0.4,3.1-1c0.5-0.6,1-1.2,1.2-1.9
			c1.9-4.4,3.1-8.3,4.4-12.8l0.2-0.5c0.7-2.2,1.4-4.6,2.4-6.9c0.2-0.3,0.3-0.6,0.5-1c0.2-0.4,0.4-0.9,0.6-1.3
			c0.4,1.7,0.3,3.9,0.2,6.3c-0.1,2.9-0.2,5.9,0.6,8l0.1,0.1c0.2,0.2,0.5,0.3,0.7,0.3c0.1,0,0.2,0,0.3,0.1l0.9,0c0.8,0,1.3-0.3,1.6-1
			c0.7-1.4,1.3-2.8,2-4.2c1.8-3.9,3.5-7.5,5.8-10.9c0,0,0.1,0,0.1,0v3.8c0,0.8,0,1.7,0,2.5c0,1.6-0.1,3.3,0,5.1
			c0.1,0.6,0.2,1.3,0.4,1.9c0.2,1.1,0.4,2.3,0.7,3.4c0.3,0.8,0.7,1.3,1.4,2c0.5,0.5,1.2,0.9,1.9,1l2.1,0c1.9-0.3,3.5-1.9,3.4-3.4
			C380.3,352.2,380.1,351.7,379.9,351.6z M323.6,342.2c1.4,0,4.5,0.4,4.8,1.7c-0.1,5.2-2,12.9-5.7,12.9c-1.8,0-2.6-3.7-2.6-5.5
			C320.1,348.9,321.5,342.2,323.6,342.2z M327.4,340.8c-1.4,0-2.3-1-2.5-1.3c0,0,0,0,0,0c0.2-0.6,0.7-1.9,1-2.4
			c0.5,0.2,1.1,1.4,1.6,3.6C327.4,340.7,327.4,340.7,327.4,340.8z"/>
		<path id="XMLID_386_" d="M91.1,283.6c8.6-3.5,14.7-11.6,19.4-19.4c4.9-10.9,6.6-25,2.7-37.4c-1.4-4.7-3.8-9-7.3-12.9
			c-4.8-5.5-10.8-8.6-18.4-8.6c-1.3,0-2.3-0.1-3.5-0.1c-3.3-0.4-4,0.1-4.6,3.1c-0.5,3.3-1,6.9-1.2,10.2c-0.5,11.5-0.1,22.8,0.7,34.2
			c0.1,3,0.4,6,0.9,9c0.8,6.1,2.1,12.1,2.9,17.8c0.4,2.1,0.7,4,1,5.7c0.7,2.6,1.8,3.5,4.4,3.5c1.8-0.4,2.5-0.9,2.3-2.9
			c-0.3-0.4-0.3-0.7-0.3-0.9C90.2,284.3,90.4,283.9,91.1,283.6z M89.5,278.2c-0.7-0.9-0.8-1.8-0.8-3c-0.8-20.3-2.9-41.4-2.3-61.8
			v-1.6c0-2.1,0.8-2.7,3.1-2.1c2.1,0.5,4.2,1.7,5.7,3.4c4,4,6.8,8.9,8.5,14.2c3,10.7,3.3,21.9,0,32.5c-0.9,3-2.1,5.7-3.8,8.3
			c-2.6,3.8-5.5,7.3-9.1,10.3C90.1,279.2,90.1,279.1,89.5,278.2z"/>
		<path id="XMLID_389_" d="M123.6,267.1c0.5-0.9,0.7-2,1-3c0-0.8,0.4-1,1.2-1.2c1.3-0.1,2.6-0.4,3.8-0.7c3.1-0.5,6.4-1,9.4-1.7
			c0.5-0.1,0.7,0,1,0.5l0.4,2.1c2.1,4.7,1.7,11.1,5.1,14.6l0.9,0.3c0.9,0.3,1.7,0.1,2.6,0c1.2-0.3,1.7-0.7,1.7-1.8v-0.8l-0.7-6.2
			c-2.3-19.4-6-38.7-10.2-57.8l-0.9-2.6c-0.1-0.5-0.8-0.9-1.4-1.2c-0.5-0.1-1.2,0-1.8,0c-2.7-0.3-3,2.1-3.4,4
			c-3.9,13.4-6.8,26.9-9.6,40.7c-1.2,4.3-2.6,8.6-3.8,12.8C115.9,271.6,121.1,271.8,123.6,267.1z M125.2,259.8
			c3.1-9.8,5.2-19.8,6.4-29.9c0.3-1,0.5-2.1,0.7-3.1l0.4-1h0.1v0.8c0.4,1.3,0.4,2.5,0.7,3.8l5.5,26.7v0.4c0.1,0.5,0,0.8-0.5,0.9
			c-1,0-2.2,0.4-3.4,0.5c-3.1,0.5-6,1.2-9.1,1.6C125.4,260.5,125.1,260.3,125.2,259.8z"/>
		<path id="XMLID_392_" d="M159.9,281c0.3,1.6,1.4,2.5,3.3,2.7h1.8c1.2-0.3,1.6-0.8,1.4-2.2c-0.8-4.3-0.9-8.9-0.8-13.3
			c0-4.9,0.5-9.9,0.9-14.8c0.3-0.7,0.3-1,0.9-1.2c1.7-0.7,3.1-1.3,4.7-1.8c0.9-0.5,1.3-0.4,1.8,0.5c1.3,2.5,2.6,5.2,3.6,7.8
			c2.9,6.2,7,11.6,12.5,15.5c3.1,2.7,6.8,3.6,10.5,3.9c3.1,0,5.5-1.7,6.5-4c0-0.1,0.1-0.2,0.1-0.4c6.2,0,12.4-1.5,18.4-2
			c0.5-0.1,1-0.4,1.4-0.8c0.7-0.4,0.7-1.2,0-1.6c-0.8-0.7-1.8-0.9-2.9-0.9c-4.2-0.3-8.2,0.9-12.2,1.4c-1.7,0.3-1.8,0.1-2-1.2
			c-0.1-0.9-0.1-1.8-0.1-2.9c-1.3-16.9,0.8-34.4,1-51.2c0-0.9-0.1-1.7-0.3-2.5s-0.7-1.2-1.4-1.4c-1.4-0.5-2.9-0.5-4.3,0
			c-0.8,0.3-1.2,0.7-1.3,1.4c-0.1,0.7-0.4,1.3-0.4,2.1c-1.8,14.6-2.7,40.9-1.7,57.3c0.2,0.4,0.4,0.7,0.8,1c-0.1,0.1-0.3,0.3-0.4,0.5
			c-0.4,0.3-0.7,0.7-0.8,0.9c-1.3,1-2.2,1-3.6,0.3c-1-0.5-2.2-1.4-3-2.3c-3.9-3.4-6.6-7.9-9-12.5c-2.1-4.3-3.9-8.7-7.2-12.6
			c-0.4-0.4-0.4-0.9,0-1.4c1.6-2.2,3.4-4.4,4.8-6.5c4-5.9,6.8-12.4,6.5-19.7c0-3.8-0.7-7.4-2.1-10.7c-3.9-7.7-15-9.2-21.7-4.3
			c-0.5,0.3-1,0.5-1.8,0.5c-0.4-0.1-1.2,0.7-1.3,1.3c-0.5,0.5-0.8,1.2-1,2c-0.9,2.9-1.6,5.9-2.1,8.7c-2.9,19.9-3.9,40.5-0.4,60.5
			C159.3,278.5,159.6,279.8,159.9,281z M169.4,246.4c-0.1,0.4-0.5,0.8-0.7,0.9c-0.5,0.4-1,0.5-1.4,0.9c-0.4-0.8-0.5-1.3-0.5-1.7
			c0.1-1.2,0.7-1.6,2.1-1.4l0.9,0.5C169.8,245.9,169.6,246.3,169.4,246.4z M166.9,237.9c0.3-8.3,0.5-15.7,1.4-23.9
			c0.1-1.2,0.1-2.3,0.1-3.5c0-1.7,0.8-3,2.2-3.8l3.3-1.4c1.4-0.4,2.6,0,3.5,1c0.9,1.2,1.6,2.6,2.1,4c1.3,4.3,1.7,8.7,0.9,14.8
			c-0.5,4.7-3,10.5-6.5,16.1c-0.7,0.9-1.4,1.4-2.9,1.3C166.5,241.8,166.5,243,166.9,237.9z"/>
		<path id="XMLID_394_" d="M239,217.2c0.7,0,1.4-0.5,1.6-0.8c0.7-0.4,1.6-4.2-0.1-5.7c-0.5-0.5-1.8-0.1-2.5-0.5
			c-2.6,0-6.2,4.6-2.7,6.2C236.1,216.9,237.6,217.2,239,217.2z"/>
		<path id="XMLID_395_" d="M241.6,227.4c-2.9-1.2-5.5-0.8-5.9,2c-0.4,0.5-0.7,1-0.7,1.6c-1.3,10.3-1.4,20.2-1.4,32.9
			c0.3,3.1-0.8,8.3,2.5,9.8c0.5,0.3,1.3,0.3,2,0.3c1.6-0.9,3-0.3,3-2.7c0-10,0.8-20,1.3-30.8C242.1,235.9,243.9,228.3,241.6,227.4z"
			/>
		<path id="XMLID_396_" d="M268,231.9c-2.5-6.1-5.2-12.1-7.5-18.4c-1.3-3.1-3.6-7.7-7.8-6c-1.4,0.4-2.1,1.3-2.2,3v0.4l-0.9,9.1
			c-0.9,15.6-0.9,31.1,1,46.7c0.5,3.8,1.2,7.5,1.8,11.3c0.1,0.5,0.3,1,0.5,1.4c1.3,1.8,3.5,2.6,5.6,2.1c3.1-1.7,1.6-5.5,1.2-8.3
			c-2.1-13.3-2.7-26.8-2.6-40.3c0-3.3,0.1-6.5,0.3-9.8c0-0.8,0.3-1.6,0.4-2.3c0.9,0.4,0.8,1.3,1,2c0.8,1.8,1.6,3.6,2.2,5.5l1.2,3
			c5.5,13.4,9.4,27.5,15,40.7c0.5,0.7,1.3,1,2.2,1c0.5,0,1.2,0,1.7-0.1c1-0.3,1.4-0.8,1.4-1.8V269c0.5-18.6,0.9-37.4,4-55.7l0.9-4.6
			c0.3-1,0.1-1.3-0.8-1.6c-1-0.4-2.1-0.4-3.1-0.1c-0.7,0.3-1,0.7-1.2,1.4l-0.8,3.8c-2.3,12.9-2.5,26.2-3.6,39.2l-0.4,4.9
			c0,0.1-0.1,0.3-0.1,0.4l-0.4-0.3v-0.3C274.3,248.1,271.3,240,268,231.9z"/>
		<path id="XMLID_397_" d="M312.7,214.6l1.6-2.1c0.4-0.5,0.7-0.5,1,0c0.5,0.7,1,1.4,1.4,2.2c0.5,1.2,1,2.3,1,3.6
			c0,0.5,0.4,0.9,0.9,1c0.9,0.3,1.8,0.3,2.6-0.1c2.1-2.1,2.1-5.2,0.9-7.7c-1.3-2.9-3.9-5.3-7.3-5.1c-2.7-0.1-5.2,0.7-7.5,2.5
			c-13.1,10.2-15.2,30.2-16.1,43.9c0,9,0.1,21.2,9.2,25.9c2.3,0.8,4.8,0.9,7.2,0.7c12.4-3.6,16.9-18.2,19.9-29.5
			c0.1-0.7,0.5-1.3,0.8-2c0.4-0.8,0.3-1.3-0.1-1.7c-4.7-1-9.9-0.7-14.6,0.7c-0.7,0.3-1.3,0.7-2,1c-0.3,0.1-0.5,0.3-0.8,0.5
			c-0.4,0.4-0.4,1.2,0,1.4c3.6,2.3,6.9-1.3,10.7-1c0.7,0,0.8,0.1,0.7,0.8c-2.3,9.6-6.1,19.1-13.7,25.8c-0.4,0.4-0.9,0.8-1.4,1
			c-1.7,0.8-2.5,0.5-3.4-1c-0.8-1.3-1.4-2.6-1.7-4c-3.5-14.4-0.3-29.5,4.4-43.6C308,223.1,309.4,218.4,312.7,214.6z"/>
		<path id="XMLID_398_" d="M85.9,395.9c1-0.3,1.3-1.6,0.5-2.6c-0.6-0.5-1.3-1-1.9-1.3c-12.5-2.4-26.1-0.8-38.3,2.6
			c-0.8,0-1.6,0.6-2.1,1c-0.8,0.6-0.6,1.6,0,2.2c0.2,0.3,0.8,0.8,1.4,1c2.1,1,4.2,1,6.1,0.3c1.9-0.5,3.7-0.6,5.6-1.1
			c0.6-0.2,1.1,0.5,1.1,1.3v0.6c-0.6,3.8-1.1,7.9-1.4,11.9c-2.2,19.9-1,40.4-0.2,60.4c0.5,4.8,1.9,6.3,6.3,6.4h0.6
			c1.4,0.2,1.6-0.3,1.8-1.8c0-2.2,0.2-4.5,0.2-6.9c0-23.4,3.2-47,2.7-70.2c0.2-4,0.3-2.9,3.2-3.4c0-0.3,0.3-0.3,0.5-0.3
			c6.3-0.3,7.1-1,13.3-0.2H85.9z"/>
		<path id="XMLID_399_" d="M125.5,393c0-1-0.2-1.9-0.5-2.9c-0.2-0.5-0.5-1-0.8-1.3c-0.8-0.6-1.6-0.8-2.4-0.8c-0.6,0-1.3,0.2-1.9,0.3
			c-1.3,0.5-1.6,1.6-1.8,2.9c-0.2,0.8-0.3,1.6-0.3,2.4l-0.6,10.1c-0.2,5.3-0.2,10.6-0.2,15.9v1.9c0,0.6-0.3,1.1-0.8,1.3l-1.3,0.5
			c-6.4,1.6-13.1,1.9-19.4,3.8c-0.6,0-0.6-0.5-0.6-1.9L94.4,407v-1.9c0-1.1-0.6-1.8-1.6-2.1c-0.8-0.3-1.6-0.3-2.4-0.3
			c-0.6,0-1.3,0-1.9,0.2c-1.3,0.3-2.2,1.1-2.6,2.6c-2.7,19.1-0.6,38.5,0.5,57.2c0.3,2.9,1,5.6,2.1,8.3c0.5,1,1,1.8,1.9,2.1
			s1.9,0.5,2.9,0.5c1.1,0,2.2-0.2,3.4-0.6c0.8-0.3,1.1-0.8,1.1-1.4V471c-0.3-1.3-0.5-2.4-0.6-3.7c-0.8-11.2-1.4-22.6-1.9-33.8
			c0-1.1,0.3-1.8,1.3-2.2c2.2-1.3,4.6-2.2,7.2-2.7l12-2.4h0.5c0.5,0,0.8,0.2,0.8,0.5v1.4c-0.3,16.4-0.8,33,4.8,48.7l0.5,1.1
			c0.6,1.8,1.9,2.6,3.7,2.7h1.9c2.4-0.2,3-1,3-3.4c0-1.9-0.5-3.8-0.8-5.8C125,445.6,128.4,419.2,125.5,393z"/>
		<path id="XMLID_400_" d="M165.4,463.4c-0.5,0.5-1.3,1.1-2.1,1.4l-9,1.4c-2.6,0.3-2.6,0.3-3-1.8c-1.1-9.3-1.3-18.3-1.3-27.4V435
			c0.3-1,0.5-1.3,1.4-1.8c4-1.1,8-2.6,11.9-3.8c0.8-0.3,1.6-1,2.1-1.4c0.8-0.3,0.5-1.3-0.2-1.9c-4-1.6-8.3-0.2-12.2,1.1
			c-2.2,0.5-2.6,0.5-2.6-2.2v-1.4c1.1-8.3,1-16.7,1.9-25c0-0.8,0.6-1.1,1.4-1.1c1.8,0,3.5-0.2,5.6-0.2c1.3,0,2.6,0.2,3.8,0.8
			c1.3,0.5,2.4,0.5,3.7,0.5c0.5,0,1.4-0.3,1.4-0.8c0.2-0.3,0.2-1.3-0.3-1.6c-0.5-0.6-1.1-1.3-2.2-1.6c-1-0.5-1.8-1-3-1
			c-5-0.5-10.1-0.8-15.1,0.3c-0.5,0-1,0.2-1.4,0.2c-1,0.5-1.8,1-2.1,2.1c-5,23.1-5.9,46.8-2.1,69.7c0.3,1.8,1.1,2.9,2.4,3.7
			c3.5,1.9,7.7,2.2,11.4,1c4-1,7.9-1.9,11.7-3c1-0.3,1.9-0.8,2.4-1.6c0.8-0.5,0.6-1.9,0-2.4C168.5,462.6,167,462.6,165.4,463.4z"/>
		<path id="XMLID_401_" d="M240.6,388.4c-1.3-0.5-2.6-0.5-3.8-0.2c-0.8,0.3-1.3,0.8-1.4,1.8l-1,4.6c-2.9,15.9-3,32.2-4.5,48.3
			l-0.5,6.1c0,0.2-0.2,0.3-0.2,0.5l-0.5-0.3v-0.3c-3.4-10.1-7.1-20-11.1-30c-3-7.5-6.4-14.9-9.3-22.6c-1.6-3.8-4.5-9.5-9.6-7.4
			c-1.8,0.5-2.6,1.6-2.7,3.7v0.5l-1.1,11.2c-1.1,19.2-1.1,38.3,1.3,57.6c0.6,4.6,1.4,9.3,2.2,13.9c0.2,0.6,0.3,1.3,0.6,1.8
			c1.6,2.2,4.3,3.2,6.9,2.6c3.8-2.1,1.9-6.7,1.4-10.3c-2.6-16.4-3.4-33-3.2-49.7c0-4,0.2-8,0.3-12c0-1,0.3-1.9,0.5-2.9
			c1.1,0.5,1,1.6,1.3,2.4c1,2.2,1.9,4.5,2.7,6.7l1.4,3.7c6.7,16.5,11.5,33.8,18.4,50.2c0.6,0.8,1.6,1.3,2.7,1.3c0.6,0,1.4,0,2.1-0.2
			c1.3-0.3,1.8-1,1.8-2.2v-2.6c0.6-22.9,1.1-46,5-68.6l1.1-5.6C241.9,389,241.7,388.7,240.6,388.4z"/>
		<path id="XMLID_404_" d="M358.6,390.1c-1.4,0-2.4,0.5-2.7,2.4c-0.2,0.2,0,0.3-0.2,0.8c-3.2,11.9-6.6,24.9-9.3,37.2l-1.4,8.3
			c-0.5,2.9-1.1,5.8-1.4,8.3c0,0.8-0.3,0.6-1.3,0.3c0-0.2-0.2-0.6-0.2-0.8c-1.6-19.9-3-40.2-8.5-59.5c-1.4-3.7-5-5.6-8.3-4.5
			c-1.4,0.2-1.9,0.6-1.9,2.4c-0.2,1.6-0.2,3.2-0.5,4.7c-4.5,17.3-8.5,35-11.9,52.8v1h-1.3c0-0.2-0.2-0.6-0.2-0.8
			c-0.2-0.8-0.3-1.4-0.3-2.1l-0.2-1.9c-2.1-15.1-2.6-30.6-4.7-45.7c0-0.3-0.2-0.8-0.2-1.1c-0.2-1.9-1-2.7-2.7-3.2
			c-1.1-0.3-2.2-0.3-3.4-0.3c-1.1,0-1.8,0.6-1.9,1.8c-0.5,0.5-0.5,1.4-0.5,2.1c0,0.2-0.2,0.6-0.2,0.8v5.9c0.5,5.6,1,11.1,1.4,16.7
			c-3.2,2.7-11.7,4.8-14.2,4.8l-1.4,0.3H281c-0.3,0-0.5-0.3-0.5-1c0-0.3-0.2-0.6-0.2-1.1c-1.4-7.9-1.3-17.5-9.8-21.2
			c-1.1-0.5-2.1-0.8-3.4-1l-4.5,0.5h-1.4c-9.3,0-12,11.1-13.1,20.4c-2.2,12.8-1.8,26.3,0.6,39.1c1,6.4,4.5,12.5,10.3,15.9
			c1.8,1,3.8,1.3,5.9,1.3c0.6,0,1.1-0.2,1.8-0.2c1.8-0.2,3-0.8,4.5-1.8c1.4-1.6,2.7-3.2,3.5-5.1c5.3-11.1,6.1-23.7,6.6-35.8
			c0-3.4-0.3-2.4-0.3-5.8c-0.3-2.2,0-2.1,1.9-2.1c3,0.1,11.2-0.7,14.3-3.5c1.2,17.6,2.4,35.1,6.5,52.5c0.5,1.4,1.4,2.6,2.9,3h1
			c0.3,0,0.8,0.2,1.3,0.2c1.9,0.5,3-0.5,3.4-2.7c0.2-6.9,1-13.1,1.8-19.4l0.5-3.2c1.4-12.7,4.5-26,7.4-38l2.2-10.1
			c0.2-0.2,0.3-0.6,0.3-0.5c0-0.2,0-0.2,0.2-0.3l0.6-0.6c0,0,0.3-0.2,0.5,0.2c0.5,0.3,0.6,1.1,0.6,1.8c3.8,22.4,5.3,45.2,10.7,67.3
			c0,0.3,0.2,0.5,0.2,0.8c0.6,1.1,2.2,2.7,3.4,3c0.3,0,0.6,0.2,1,0.2c0.3,0,0.6,0,1-0.2c1.9,0,2.4-0.5,2.9-2.1
			c3.7-24.2,8.8-50.7,14.9-74.9l0.6-2.9C361.2,391.6,360.7,390.1,358.6,390.1z M260.2,410.7c1.1-3.8,0.5-14.4,7.4-9.8
			c4,3.5,4.3,10.6,5.8,15.4c0,0.5,0.2,0.8,0.2,1.1v1.4c0.2,1,0,1.3-1,1.4h-1.6c-1.9,0-5.9-2.4-7.4-3.8c-1.3-1.4-2.6-2.4-3.4-4.2
			v-0.5C260.2,411.3,260,411,260.2,410.7z M267.5,465.2c-0.8,0.8-1.3,1.6-2.1,2.6c-0.2,0.2-0.3,0.3-0.5,0.3c-0.2,0-0.3-0.2-0.5-0.3
			c-1.1-1.4-2.1-3-2.9-4.7c-4.5-12.7-4.2-26.3-3.7-39.6c0-1.4,0.3-2.7,0.5-4.2c0-0.2,0.2-0.3,0.5-0.3c0.2,0,0.3,0,0.5,0.2
			c4,1.9,8.3,4.3,12.3,4.2h0.8c1.4,0,2.1,0.3,2.1,1.8c0,1.6,0.2,4.6,0.2,7.4C274.6,443.9,273.5,454.9,267.5,465.2z"/>
	</g>
</g>
</svg>
